<?xml version="1.0" encoding="UTF-8" standalone="no"?>
<!-- Created with Inkscape (http://www.inkscape.org/) -->

<svg
   version="1.1"
   id="svg2"
   width="576"
   height="288"
   viewBox="0 0 576 288"
   xmlns="http://www.w3.org/2000/svg"
   xmlns:svg="http://www.w3.org/2000/svg">
  <defs
     id="defs6">
    <clipPath
       clipPathUnits="userSpaceOnUse"
       id="clipPath20">
      <path
         d="m 41.835,35.46 h 283.91 V 206.14853 H 41.835 Z"
         id="path18" />
    </clipPath>
    <clipPath
       clipPathUnits="userSpaceOnUse"
       id="clipPath40">
      <path
         d="m 41.835,35.46 h 283.91 V 206.14853 H 41.835 Z"
         id="path38" />
    </clipPath>
    <clipPath
       clipPathUnits="userSpaceOnUse"
       id="clipPath60">
      <path
         d="m 41.835,35.46 h 283.91 V 206.14853 H 41.835 Z"
         id="path58" />
    </clipPath>
    <clipPath
       clipPathUnits="userSpaceOnUse"
       id="clipPath80">
      <path
         d="m 41.835,35.46 h 283.91 V 206.14853 H 41.835 Z"
         id="path78" />
    </clipPath>
    <clipPath
       clipPathUnits="userSpaceOnUse"
       id="clipPath94">
      <path
         d="m 41.835,35.46 h 283.91 V 206.14853 H 41.835 Z"
         id="path92" />
    </clipPath>
    <clipPath
       clipPathUnits="userSpaceOnUse"
       id="clipPath108">
      <path
         d="m 41.835,35.46 h 283.91 V 206.14853 H 41.835 Z"
         id="path106" />
    </clipPath>
    <clipPath
       clipPathUnits="userSpaceOnUse"
       id="clipPath128">
      <path
         d="m 41.835,35.46 h 283.91 V 206.14853 H 41.835 Z"
         id="path126" />
    </clipPath>
    <clipPath
       clipPathUnits="userSpaceOnUse"
       id="clipPath148">
      <path
         d="m 41.835,35.46 h 283.91 V 206.14853 H 41.835 Z"
         id="path146" />
    </clipPath>
    <clipPath
       clipPathUnits="userSpaceOnUse"
       id="clipPath168">
      <path
         d="m 41.835,35.46 h 283.91 V 206.14853 H 41.835 Z"
         id="path166" />
    </clipPath>
    <clipPath
       clipPathUnits="userSpaceOnUse"
       id="clipPath188">
      <path
         d="m 41.835,35.46 h 283.91 V 206.14853 H 41.835 Z"
         id="path186" />
    </clipPath>
    <clipPath
       clipPathUnits="userSpaceOnUse"
       id="clipPath208">
      <path
         d="m 41.835,35.46 h 283.91 V 206.14853 H 41.835 Z"
         id="path206" />
    </clipPath>
    <clipPath
       clipPathUnits="userSpaceOnUse"
       id="clipPath228">
      <path
         d="m 41.835,35.46 h 283.91 V 206.14853 H 41.835 Z"
         id="path226" />
    </clipPath>
    <clipPath
       clipPathUnits="userSpaceOnUse"
       id="clipPath242">
      <path
         d="m 41.835,35.46 h 283.91 V 206.14853 H 41.835 Z"
         id="path240" />
    </clipPath>
    <clipPath
       clipPathUnits="userSpaceOnUse"
       id="clipPath256">
      <path
         d="m 41.835,35.46 h 283.91 V 206.14853 H 41.835 Z"
         id="path254" />
    </clipPath>
    <clipPath
       clipPathUnits="userSpaceOnUse"
       id="clipPath270">
      <path
         d="m 41.835,35.46 h 283.91 V 206.14853 H 41.835 Z"
         id="path268" />
    </clipPath>
    <clipPath
       clipPathUnits="userSpaceOnUse"
       id="clipPath284">
      <path
         d="m 41.835,35.46 h 283.91 V 206.14853 H 41.835 Z"
         id="path282" />
    </clipPath>
    <clipPath
       clipPathUnits="userSpaceOnUse"
       id="clipPath298">
      <path
         d="m 41.835,35.46 h 283.91 V 206.14853 H 41.835 Z"
         id="path296" />
    </clipPath>
    <clipPath
       clipPathUnits="userSpaceOnUse"
       id="clipPath308">
      <path
         d="m 41.835,35.46 h 283.91 V 206.14853 H 41.835 Z"
         id="path306" />
    </clipPath>
    <clipPath
       clipPathUnits="userSpaceOnUse"
       id="clipPath318">
      <path
         d="m 41.835,35.46 h 283.91 V 206.14853 H 41.835 Z"
         id="path316" />
    </clipPath>
    <clipPath
       clipPathUnits="userSpaceOnUse"
       id="clipPath346">
      <path
         d="m 339.705,130.72426 v 15.84 h 15.84 v -15.84"
         id="path344" />
    </clipPath>
    <clipPath
       clipPathUnits="userSpaceOnUse"
       id="clipPath366">
      <path
         d="m 339.705,112.88426 v 15.84 h 15.84 v -15.84"
         id="path364" />
    </clipPath>
    <clipPath
       clipPathUnits="userSpaceOnUse"
       id="clipPath386">
      <path
         d="m 339.705,95.044263 v 15.839997 h 15.84 V 95.044263"
         id="path384" />
    </clipPath>
  </defs>
  <g
     id="g8"
     transform="matrix(1.3333333,0,0,-1.3333333,0,288)">
    <path
       d="M 0,0 H 432 V 216 H 0 Z"
       style="fill:#ffffff;fill-opacity:1;fill-rule:nonzero;stroke:#ffffff;stroke-width:1;stroke-linecap:butt;stroke-linejoin:miter;stroke-miterlimit:10;stroke-dasharray:none;stroke-opacity:1"
       id="path10" />
    <path
       d="m 41.835,35.46 h 283.91 V 206.14853 H 41.835 Z"
       style="fill:#ffffff;fill-opacity:1;fill-rule:nonzero;stroke:none"
       id="path12" />
    <g
       id="g14">
      <g
         id="g16"
         clip-path="url(#clipPath20)">
        <path
           d="M 54.74,35.46 V 206.14853"
           style="fill:none;stroke:#808080;stroke-width:0.1;stroke-linecap:square;stroke-linejoin:round;stroke-miterlimit:10;stroke-dasharray:none;stroke-opacity:0.3"
           id="path22" />
      </g>
    </g>
    <g
       id="g24">
      <path
         d="M 54.74,35.46 V 32.71"
         style="fill:#808080;fill-opacity:1;fill-rule:nonzero;stroke:#808080;stroke-width:1;stroke-linecap:butt;stroke-linejoin:round;stroke-miterlimit:10;stroke-dasharray:none;stroke-opacity:1"
         id="path26" />
      <g
         id="g28"
         transform="translate(23.380625,24.46)">
        <text
           xml:space="preserve"
           transform="scale(1,-1)"
           style="font-variant:normal;font-weight:normal;font-size:8.8px;font-family:LMRoman10;-inkscape-font-specification:LMRoman10-Regular;writing-mode:lr-tb;fill:#4d4d4d;fill-opacity:1;fill-rule:nonzero;stroke:none"
           id="text32"><tspan
             x="0 4.4000001 8.8000002 13.2 17.6 20.0464 24.4464 28.846399 31.292801 35.692799 40.0928 43.023201 47.423199 51.8232 54.2696 58.669601"
             y="0"
             id="tspan30">2023.09.15 00:00</tspan></text>
      </g>
    </g>
    <g
       id="g34">
      <g
         id="g36"
         clip-path="url(#clipPath40)">
        <path
           d="M 185.14842,35.46 V 206.14853"
           style="fill:none;stroke:#808080;stroke-width:0.1;stroke-linecap:square;stroke-linejoin:round;stroke-miterlimit:10;stroke-dasharray:none;stroke-opacity:0.3"
           id="path42" />
      </g>
    </g>
    <g
       id="g44">
      <path
         d="M 185.14842,35.46 V 32.71"
         style="fill:#808080;fill-opacity:1;fill-rule:nonzero;stroke:#808080;stroke-width:1;stroke-linecap:butt;stroke-linejoin:round;stroke-miterlimit:10;stroke-dasharray:none;stroke-opacity:1"
         id="path46" />
      <g
         id="g48"
         transform="translate(153.78905,24.46)">
        <text
           xml:space="preserve"
           transform="scale(1,-1)"
           style="font-variant:normal;font-weight:normal;font-size:8.8px;font-family:LMRoman10;-inkscape-font-specification:LMRoman10-Regular;writing-mode:lr-tb;fill:#4d4d4d;fill-opacity:1;fill-rule:nonzero;stroke:none"
           id="text52"><tspan
             x="0 4.4000001 8.8000002 13.2 17.6 20.0464 24.4464 28.846399 31.292801 35.692799 40.0928 43.023201 47.423199 51.8232 54.2696 58.669601"
             y="0"
             id="tspan50">2023.09.15 12:00</tspan></text>
      </g>
    </g>
    <g
       id="g54">
      <g
         id="g56"
         clip-path="url(#clipPath60)">
        <path
           d="M 315.55684,35.46 V 206.14853"
           style="fill:none;stroke:#808080;stroke-width:0.1;stroke-linecap:square;stroke-linejoin:round;stroke-miterlimit:10;stroke-dasharray:none;stroke-opacity:0.3"
           id="path62" />
      </g>
    </g>
    <g
       id="g64">
      <path
         d="M 315.55684,35.46 V 32.71"
         style="fill:#808080;fill-opacity:1;fill-rule:nonzero;stroke:#808080;stroke-width:1;stroke-linecap:butt;stroke-linejoin:round;stroke-miterlimit:10;stroke-dasharray:none;stroke-opacity:1"
         id="path66" />
      <g
         id="g68"
         transform="translate(284.19747,24.46)">
        <text
           xml:space="preserve"
           transform="scale(1,-1)"
           style="font-variant:normal;font-weight:normal;font-size:8.8px;font-family:LMRoman10;-inkscape-font-specification:LMRoman10-Regular;writing-mode:lr-tb;fill:#4d4d4d;fill-opacity:1;fill-rule:nonzero;stroke:none"
           id="text72"><tspan
             x="0 4.4000001 8.8000002 13.2 17.6 20.0464 24.4464 28.846399 31.292801 35.692799 40.0928 43.023201 47.423199 51.8232 54.2696 58.669601"
             y="0"
             id="tspan70">2023.09.16 00:00</tspan></text>
      </g>
    </g>
    <g
       id="g74">
      <g
         id="g76"
         clip-path="url(#clipPath80)">
        <path
           d="M 119.94421,35.46 V 206.14853"
           style="fill:none;stroke:#808080;stroke-width:0.1;stroke-linecap:square;stroke-linejoin:round;stroke-miterlimit:10;stroke-dasharray:none;stroke-opacity:0.3"
           id="path82" />
      </g>
    </g>
    <g
       id="g84">
      <path
         d="M 119.94421,35.46 V 34.085"
         style="fill:#808080;fill-opacity:1;fill-rule:nonzero;stroke:#808080;stroke-width:1;stroke-linecap:butt;stroke-linejoin:round;stroke-miterlimit:10;stroke-dasharray:none;stroke-opacity:1"
         id="path86" />
    </g>
    <g
       id="g88">
      <g
         id="g90"
         clip-path="url(#clipPath94)">
        <path
           d="M 250.35263,35.46 V 206.14853"
           style="fill:none;stroke:#808080;stroke-width:0.1;stroke-linecap:square;stroke-linejoin:round;stroke-miterlimit:10;stroke-dasharray:none;stroke-opacity:0.3"
           id="path96" />
      </g>
    </g>
    <g
       id="g98">
      <path
         d="M 250.35263,35.46 V 34.085"
         style="fill:#808080;fill-opacity:1;fill-rule:nonzero;stroke:#808080;stroke-width:1;stroke-linecap:butt;stroke-linejoin:round;stroke-miterlimit:10;stroke-dasharray:none;stroke-opacity:1"
         id="path100" />
    </g>
    <g
       id="g102">
      <g
         id="g104"
         clip-path="url(#clipPath108)">
        <path
           d="m 41.835,43.218569 h 283.91"
           style="fill:none;stroke:#808080;stroke-width:0.1;stroke-linecap:square;stroke-linejoin:round;stroke-miterlimit:10;stroke-dasharray:none;stroke-opacity:0.3"
           id="path110" />
      </g>
    </g>
    <g
       id="g112">
      <path
         d="m 41.835,43.218569 h -2.75"
         style="fill:#808080;fill-opacity:1;fill-rule:nonzero;stroke:#808080;stroke-width:1;stroke-linecap:butt;stroke-linejoin:round;stroke-miterlimit:10;stroke-dasharray:none;stroke-opacity:1"
         id="path114" />
      <g
         id="g116"
         transform="translate(32.71,40.093569)">
        <text
           xml:space="preserve"
           transform="scale(1,-1)"
           style="font-variant:normal;font-weight:normal;font-size:8.8px;font-family:LMRoman10;-inkscape-font-specification:LMRoman10-Regular;writing-mode:lr-tb;fill:#4d4d4d;fill-opacity:1;fill-rule:nonzero;stroke:none"
           id="text120"><tspan
             x="0"
             y="0"
             id="tspan118">0</tspan></text>
      </g>
    </g>
    <g
       id="g122">
      <g
         id="g124"
         clip-path="url(#clipPath128)">
        <path
           d="m 41.835,75.411803 h 283.91"
           style="fill:none;stroke:#808080;stroke-width:0.1;stroke-linecap:square;stroke-linejoin:round;stroke-miterlimit:10;stroke-dasharray:none;stroke-opacity:0.3"
           id="path130" />
      </g>
    </g>
    <g
       id="g132">
      <path
         d="m 41.835,75.411803 h -2.75"
         style="fill:#808080;fill-opacity:1;fill-rule:nonzero;stroke:#808080;stroke-width:1;stroke-linecap:butt;stroke-linejoin:round;stroke-miterlimit:10;stroke-dasharray:none;stroke-opacity:1"
         id="path134" />
      <g
         id="g136"
         transform="translate(28.335,72.286803)">
        <text
           xml:space="preserve"
           transform="scale(1,-1)"
           style="font-variant:normal;font-weight:normal;font-size:8.8px;font-family:LMRoman10;-inkscape-font-specification:LMRoman10-Regular;writing-mode:lr-tb;fill:#4d4d4d;fill-opacity:1;fill-rule:nonzero;stroke:none"
           id="text140"><tspan
             x="0 4.4000001"
             y="0"
             id="tspan138">50</tspan></text>
      </g>
    </g>
    <g
       id="g142">
      <g
         id="g144"
         clip-path="url(#clipPath148)">
        <path
           d="m 41.835,107.60504 h 283.91"
           style="fill:none;stroke:#808080;stroke-width:0.1;stroke-linecap:square;stroke-linejoin:round;stroke-miterlimit:10;stroke-dasharray:none;stroke-opacity:0.3"
           id="path150" />
      </g>
    </g>
    <g
       id="g152">
      <path
         d="m 41.835,107.60504 h -2.75"
         style="fill:#808080;fill-opacity:1;fill-rule:nonzero;stroke:#808080;stroke-width:1;stroke-linecap:butt;stroke-linejoin:round;stroke-miterlimit:10;stroke-dasharray:none;stroke-opacity:1"
         id="path154" />
      <g
         id="g156"
         transform="translate(23.96,104.48004)">
        <text
           xml:space="preserve"
           transform="scale(1,-1)"
           style="font-variant:normal;font-weight:normal;font-size:8.8px;font-family:LMRoman10;-inkscape-font-specification:LMRoman10-Regular;writing-mode:lr-tb;fill:#4d4d4d;fill-opacity:1;fill-rule:nonzero;stroke:none"
           id="text160"><tspan
             x="0 4.4000001 8.8000002"
             y="0"
             id="tspan158">100</tspan></text>
      </g>
    </g>
    <g
       id="g162">
      <g
         id="g164"
         clip-path="url(#clipPath168)">
        <path
           d="m 41.835,139.79827 h 283.91"
           style="fill:none;stroke:#808080;stroke-width:0.1;stroke-linecap:square;stroke-linejoin:round;stroke-miterlimit:10;stroke-dasharray:none;stroke-opacity:0.3"
           id="path170" />
      </g>
    </g>
    <g
       id="g172">
      <path
         d="m 41.835,139.79827 h -2.75"
         style="fill:#808080;fill-opacity:1;fill-rule:nonzero;stroke:#808080;stroke-width:1;stroke-linecap:butt;stroke-linejoin:round;stroke-miterlimit:10;stroke-dasharray:none;stroke-opacity:1"
         id="path174" />
      <g
         id="g176"
         transform="translate(23.96,136.67327)">
        <text
           xml:space="preserve"
           transform="scale(1,-1)"
           style="font-variant:normal;font-weight:normal;font-size:8.8px;font-family:LMRoman10;-inkscape-font-specification:LMRoman10-Regular;writing-mode:lr-tb;fill:#4d4d4d;fill-opacity:1;fill-rule:nonzero;stroke:none"
           id="text180"><tspan
             x="0 4.4000001 8.8000002"
             y="0"
             id="tspan178">150</tspan></text>
      </g>
    </g>
    <g
       id="g182">
      <g
         id="g184"
         clip-path="url(#clipPath188)">
        <path
           d="m 41.835,171.99151 h 283.91"
           style="fill:none;stroke:#808080;stroke-width:0.1;stroke-linecap:square;stroke-linejoin:round;stroke-miterlimit:10;stroke-dasharray:none;stroke-opacity:0.3"
           id="path190" />
      </g>
    </g>
    <g
       id="g192">
      <path
         d="m 41.835,171.99151 h -2.75"
         style="fill:#808080;fill-opacity:1;fill-rule:nonzero;stroke:#808080;stroke-width:1;stroke-linecap:butt;stroke-linejoin:round;stroke-miterlimit:10;stroke-dasharray:none;stroke-opacity:1"
         id="path194" />
      <g
         id="g196"
         transform="translate(23.96,168.86651)">
        <text
           xml:space="preserve"
           transform="scale(1,-1)"
           style="font-variant:normal;font-weight:normal;font-size:8.8px;font-family:LMRoman10;-inkscape-font-specification:LMRoman10-Regular;writing-mode:lr-tb;fill:#4d4d4d;fill-opacity:1;fill-rule:nonzero;stroke:none"
           id="text200"><tspan
             x="0 4.4000001 8.8000002"
             y="0"
             id="tspan198">200</tspan></text>
      </g>
    </g>
    <g
       id="g202">
      <g
         id="g204"
         clip-path="url(#clipPath208)">
        <path
           d="m 41.835,204.18474 h 283.91"
           style="fill:none;stroke:#808080;stroke-width:0.1;stroke-linecap:square;stroke-linejoin:round;stroke-miterlimit:10;stroke-dasharray:none;stroke-opacity:0.3"
           id="path210" />
      </g>
    </g>
    <g
       id="g212">
      <path
         d="m 41.835,204.18474 h -2.75"
         style="fill:#808080;fill-opacity:1;fill-rule:nonzero;stroke:#808080;stroke-width:1;stroke-linecap:butt;stroke-linejoin:round;stroke-miterlimit:10;stroke-dasharray:none;stroke-opacity:1"
         id="path214" />
      <g
         id="g216"
         transform="translate(23.96,201.05974)">
        <text
           xml:space="preserve"
           transform="scale(1,-1)"
           style="font-variant:normal;font-weight:normal;font-size:8.8px;font-family:LMRoman10;-inkscape-font-specification:LMRoman10-Regular;writing-mode:lr-tb;fill:#4d4d4d;fill-opacity:1;fill-rule:nonzero;stroke:none"
           id="text220"><tspan
             x="0 4.4000001 8.8000002"
             y="0"
             id="tspan218">250</tspan></text>
      </g>
    </g>
    <g
       id="g222">
      <g
         id="g224"
         clip-path="url(#clipPath228)">
        <path
           d="m 41.835,59.315186 h 283.91"
           style="fill:none;stroke:#808080;stroke-width:0.1;stroke-linecap:square;stroke-linejoin:round;stroke-miterlimit:10;stroke-dasharray:none;stroke-opacity:0.3"
           id="path230" />
      </g>
    </g>
    <g
       id="g232">
      <path
         d="M 41.835,59.315186 H 40.46"
         style="fill:#808080;fill-opacity:1;fill-rule:nonzero;stroke:#808080;stroke-width:1;stroke-linecap:butt;stroke-linejoin:round;stroke-miterlimit:10;stroke-dasharray:none;stroke-opacity:1"
         id="path234" />
    </g>
    <g
       id="g236">
      <g
         id="g238"
         clip-path="url(#clipPath242)">
        <path
           d="m 41.835,91.50842 h 283.91"
           style="fill:none;stroke:#808080;stroke-width:0.1;stroke-linecap:square;stroke-linejoin:round;stroke-miterlimit:10;stroke-dasharray:none;stroke-opacity:0.3"
           id="path244" />
      </g>
    </g>
    <g
       id="g246">
      <path
         d="M 41.835,91.50842 H 40.46"
         style="fill:#808080;fill-opacity:1;fill-rule:nonzero;stroke:#808080;stroke-width:1;stroke-linecap:butt;stroke-linejoin:round;stroke-miterlimit:10;stroke-dasharray:none;stroke-opacity:1"
         id="path248" />
    </g>
    <g
       id="g250">
      <g
         id="g252"
         clip-path="url(#clipPath256)">
        <path
           d="m 41.835,123.70166 h 283.91"
           style="fill:none;stroke:#808080;stroke-width:0.1;stroke-linecap:square;stroke-linejoin:round;stroke-miterlimit:10;stroke-dasharray:none;stroke-opacity:0.3"
           id="path258" />
      </g>
    </g>
    <g
       id="g260">
      <path
         d="M 41.835,123.70166 H 40.46"
         style="fill:#808080;fill-opacity:1;fill-rule:nonzero;stroke:#808080;stroke-width:1;stroke-linecap:butt;stroke-linejoin:round;stroke-miterlimit:10;stroke-dasharray:none;stroke-opacity:1"
         id="path262" />
    </g>
    <g
       id="g264">
      <g
         id="g266"
         clip-path="url(#clipPath270)">
        <path
           d="m 41.835,155.89489 h 283.91"
           style="fill:none;stroke:#808080;stroke-width:0.1;stroke-linecap:square;stroke-linejoin:round;stroke-miterlimit:10;stroke-dasharray:none;stroke-opacity:0.3"
           id="path272" />
      </g>
    </g>
    <g
       id="g274">
      <path
         d="M 41.835,155.89489 H 40.46"
         style="fill:#808080;fill-opacity:1;fill-rule:nonzero;stroke:#808080;stroke-width:1;stroke-linecap:butt;stroke-linejoin:round;stroke-miterlimit:10;stroke-dasharray:none;stroke-opacity:1"
         id="path276" />
    </g>
    <g
       id="g278">
      <g
         id="g280"
         clip-path="url(#clipPath284)">
        <path
           d="m 41.835,188.08812 h 283.91"
           style="fill:none;stroke:#808080;stroke-width:0.1;stroke-linecap:square;stroke-linejoin:round;stroke-miterlimit:10;stroke-dasharray:none;stroke-opacity:0.3"
           id="path286" />
      </g>
    </g>
    <g
       id="g288">
      <path
         d="M 41.835,188.08812 H 40.46"
         style="fill:#808080;fill-opacity:1;fill-rule:nonzero;stroke:#808080;stroke-width:1;stroke-linecap:butt;stroke-linejoin:round;stroke-miterlimit:10;stroke-dasharray:none;stroke-opacity:1"
         id="path290" />
    </g>
    <g
       id="g292">
      <g
         id="g294"
         clip-path="url(#clipPath298)">
        <path
           d="m 54.74,106.37526 h 10.867368 v -1.24266 h 10.867369 v -1.32636 h 10.867368 v 0.27686 h 10.867369 v 0.18028 h 10.867366 v 1.21046 h 10.86737 v 9.2781 h 10.86737 v 2.96177 h 10.86737 v 4.57788 h 10.86737 v -6.92798 h 10.86736 v -10.48212 h 10.86737 v -3.61852 h 10.86737 v -1.25554 h 10.86737 v 0.16097 h 10.86737 v -0.334809 h 10.86737 v 0.502209 h 10.86736 v 2.51108 h 10.86737 v 9.93483 h 10.86737 v 4.02415 H 261.22 v 4.32677 h 10.86737 v 0.95292 h 10.86737 v -5.70464 h 10.86736 v -7.98392 h 10.86737 v -3.67003 H 312.84 v 0"
           style="fill:none;stroke:#374e55;stroke-width:0.886227;stroke-linecap:butt;stroke-linejoin:miter;stroke-miterlimit:10;stroke-dasharray:none;stroke-opacity:1"
           id="path300" />
      </g>
    </g>
    <g
       id="g302">
      <g
         id="g304"
         clip-path="url(#clipPath308)">
        <path
           d="m 54.74,67.942973 h 2.716842 v 15.645912 h 2.716842 v -8.75656 h 2.716842 v -4.442666 h 2.716842 v 2.060367 h 2.716843 v 4.056347 h 2.716842 v 7.340058 h 2.716842 v -17.31996 h 2.716842 v 12.104656 h 2.716842 v 8.177081 h 2.716842 v -1.158956 h 2.716842 V 80.75588 h 2.716842 v 6.824966 h 2.716842 V 86.42189 h 2.716842 v -1.28773 h 2.716843 v -9.207265 h 2.716842 V 74.38162 h 2.716846 v 8.177081 h 2.71684 V 79.274992 H 106.36 V 75.47619 h 2.71684 v -1.931594 h 2.71684 v -1.802821 h 2.71685 v 12.94168 h 2.71684 v 2.704232 h 2.71684 v -24.98195 h 2.71684 v 5.730396 h 2.71684 v 7.404443 h 2.71685 v 29.167074 h 2.71684 V 73.480209 h 2.71684 v 8.241468 h 2.71684 v 5.279691 h 2.71684 v 3.28371 h 2.71685 v -0.128773 h 2.71684 v 0.450705 h 2.71684 v 0.772638 h 2.71684 v -0.386319 h 2.71685 v 1.867207 h 2.71684 V 90.027532 H 157.98 v -0.19316 h 2.71684 v -1.287729 h 2.71684 v -1.931594 h 2.71685 V 83.13818 h 2.71684 v -8.885333 h 2.71684 V 56.675341 h 2.71684 v 3.541256 h 2.71684 v 9.85113 h 2.71685 v 3.026164 h 2.71684 V 66.91279 h 2.71684 v 24.531244 h 2.71684 V 65.238742 h 2.71685 V 51.524424 h 2.71684 v 8.756559 h 2.71684 v -0.90141 h 2.71684 v 32.193234 h 2.71684 V 70.518432 h 2.71685 V 55.580771 h 2.71684 v 1.802821 H 209.6 v 0.321933 h 2.71684 v 3.412483 h 2.71684 v 5.601622 h 2.71685 V 51.58881 h 2.71684 v 3.090551 h 2.71684 v 11.267632 h 2.71684 v 2.511072 h 2.71684 v -5.150918 h 2.71685 v 21.440694 h 2.71684 v -7.597603 h 2.71684 v 16.354163 h 2.71684 V 81.914837 h 2.71684 v 2.446686 h 2.71685 v 4.700212 h 2.71684 v 3.991961 h 2.71684 V 64.144172 h 2.71684 v 15.967844 h 2.71685 v 11.332018 h 2.71684 v 6.56742 H 261.22 v -7.597603 h 2.71684 v 0.321932 h 2.71684 v -0.19316 h 2.71685 v 0.19316 h 2.71684 v 0.965797 h 2.71684 v -5.344077 h 2.71684 V 71.934934 h 2.71684 V 52.940926 h 2.71685 v 17.706279 h 2.71684 v 3.09055 h 2.71684 v -1.674048 h 2.71684 V 59.508346 h 2.71684 v -2.704232 h 2.71685 v 19.058395 h 2.71684 V 64.337331 h 2.71684 v -2.833005 h 2.71684 v 12.104656 h 2.71685 v 6.052328 h 2.71684 V 76.892692 H 312.84 v -18.607689 0"
           style="fill:none;stroke:#df8f44;stroke-width:0.886227;stroke-linecap:butt;stroke-linejoin:miter;stroke-miterlimit:10;stroke-dasharray:none;stroke-opacity:1"
           id="path310" />
      </g>
    </g>
    <g
       id="g312">
      <g
         id="g314"
         clip-path="url(#clipPath318)">
        <path
           d="m 54.74,153.89891 h 2.716842 v -1.09457 h 2.716842 v -12.49098 h 2.716842 v -20.53928 h 2.716842 v 35.73449 h 2.716843 v -8.88533 h 2.716842 v -7.72638 h 2.716842 v 1.99598 h 2.716842 v 10.81693 h 2.716842 v -3.47687 h 2.716842 v -5.53724 h 2.716842 v -8.11269 h 2.716842 v 16.99802 h 2.716842 v -8.62778 h 2.716842 v -4.50705 h 2.716843 v -0.45071 h 2.716842 v -1.35212 h 2.716846 v 1.15896 h 2.71684 v 3.02617 h 5.43368 v -22.02018 h 5.43369 v 36.6359 h 2.71684 v -3.86319 h 2.71684 v -22.59964 h 5.43368 v 26.46283 h 2.71685 v 19.31594 h 2.71684 v -23.82299 h 2.71684 v -1.15896 h 2.71684 v 1.28773 h 2.71684 v -0.4507 h 2.71685 v 2.63984 h 2.71684 v -0.90141 h 2.71684 v -0.4507 h 2.71684 v 0.83702 h 2.71685 v 45.65001 h 2.71684 V 170.25307 H 157.98 v -18.60769 h 2.71684 v -4.44267 h 2.71684 v 5.2797 h 2.71685 v -13.52116 h 2.71684 v 1.09457 h 2.71684 v -9.01411 h 2.71684 v 4.37828 h 2.71684 v 0.83703 h 2.71685 v -1.67405 h 2.71684 v 6.05233 h 2.71684 v 54.72849 h 2.71684 v -8.5634 h 2.71685 V 142.0518 h 2.71684 v 5.02214 h 2.71684 v 12.68414 h 2.71684 v 5.79478 h 2.71684 v -16.03223 h 2.71685 v 4.63582 h 2.71684 V 139.73388 H 209.6 v -1.4165 h 2.71684 V 112.5628 h 2.71684 v 30.58357 h 2.71685 v -8.17708 h 2.71684 v -21.82702 h 2.71684 V 138.253 h 2.71684 v 7.34005 h 2.71684 v -6.24548 h 2.71685 v 4.70021 h 2.71684 v 8.24147 h 2.71684 v 13.32799 h 2.71684 v -18.86523 h 2.71684 v 2.57546 h 2.71685 v 16.41855 h 2.71684 v -3.92758 h 2.71684 v -30.58357 h 2.71684 v 21.05438 h 2.71685 v 5.85916 h 2.71684 v 15.38837 H 261.22 v -17.57751 h 2.71684 v -3.99196 l 5.43369,-0.0644 v 0.32193 h 2.71684 v -0.12877 h 2.71684 v -1.35212 h 2.71684 v -8.17708 h 5.43369 v 8.17708 h 2.71684 v -9.33604 h 2.71684 v -10.62376 h 5.43368 v 14.80888 h 2.71685 v 3.7988 h 2.71684 v -27.36424 h 5.43368 v 53.44076 h 2.71685 v -10.81692 h 2.71684 V 137.80227 H 312.84 v -19.83103 0"
           style="fill:none;stroke:#00a1d5;stroke-width:0.886227;stroke-linecap:butt;stroke-linejoin:miter;stroke-miterlimit:10;stroke-dasharray:none;stroke-opacity:1"
           id="path320" />
      </g>
    </g>
    <g
       id="g322">
      <path
         d="m 41.835,35.46 h 283.91 V 206.14853 H 41.835 Z"
         style="fill:none;stroke:#808080;stroke-width:0.5;stroke-linecap:butt;stroke-linejoin:miter;stroke-miterlimit:10;stroke-dasharray:none;stroke-opacity:1"
         id="path324" />
      <g
         id="g326"
         transform="translate(171.26656,10.765)">
        <text
           xml:space="preserve"
           transform="scale(1,-1)"
           style="font-variant:normal;font-weight:normal;font-size:11px;font-family:LMRoman10;-inkscape-font-specification:LMRoman10-Regular;writing-mode:lr-tb;fill:#000000;fill-opacity:1;fill-rule:nonzero;stroke:none"
           id="text330"><tspan
             x="0 7.9419999 11 20.163"
             y="0"
             id="tspan328">Time</tspan></text>
      </g>
      <g
         id="g332"
         transform="rotate(90,-36.832132,53.722132)">
        <text
           xml:space="preserve"
           transform="matrix(1,0,0,-1,3.663,0)"
           style="font-variant:normal;font-weight:normal;font-size:11px;font-family:LMRoman10;-inkscape-font-specification:LMRoman10-Regular;writing-mode:lr-tb;fill:#000000;fill-opacity:1;fill-rule:nonzero;stroke:none"
           id="text336"><tspan
             x="0 7.4910002 15.741 23.837 29.337 39.424 50.731998"
             y="0"
             id="tspan334">EUR/MWh</tspan></text>
      </g>
      <path
         d="M 338.705,94.044263 H 423.36 V 147.56426 H 338.705 Z"
         style="fill:#ffffff;fill-opacity:1;fill-rule:nonzero;stroke:none"
         id="path338" />
    </g>
    <g
       id="g340">
      <g
         id="g342"
         clip-path="url(#clipPath346)">
        <path
           d="m 339.705,130.72426 h 15.84 v 15.84 h -15.84 z"
           style="fill:#ffffff;fill-opacity:1;fill-rule:nonzero;stroke:none"
           id="path348" />
        <path
           d="m 339.705,138.64426 h 15.84"
           style="fill:none;stroke:#374e55;stroke-width:0.886227;stroke-linecap:butt;stroke-linejoin:round;stroke-miterlimit:10;stroke-dasharray:none;stroke-opacity:1"
           id="path350" />
      </g>
    </g>
    <g
       id="g352">
      <g
         id="g354"
         transform="translate(356.985,136.34739)">
        <text
           xml:space="preserve"
           transform="scale(1,-1)"
           style="font-variant:normal;font-weight:normal;font-size:9px;font-family:LMRoman10;-inkscape-font-specification:LMRoman10-Regular;writing-mode:lr-tb;fill:#000000;fill-opacity:1;fill-rule:nonzero;stroke:none"
           id="text358"><tspan
             x="0 6.8759999 11.376 16.128 19.125 25.875 30.879 34.875 39.375 44.379002 47.375999 52.380001 57.383999 61.883999"
             y="0"
             id="tspan356">Day-Ahead Spot</tspan></text>
      </g>
    </g>
    <g
       id="g360">
      <g
         id="g362"
         clip-path="url(#clipPath366)">
        <path
           d="m 339.705,112.88426 h 15.84 v 15.84 h -15.84 z"
           style="fill:#ffffff;fill-opacity:1;fill-rule:nonzero;stroke:none"
           id="path368" />
        <path
           d="m 339.705,120.80426 h 15.84"
           style="fill:none;stroke:#df8f44;stroke-width:0.886227;stroke-linecap:butt;stroke-linejoin:round;stroke-miterlimit:10;stroke-dasharray:none;stroke-opacity:1"
           id="path370" />
      </g>
    </g>
    <g
       id="g372">
      <g
         id="g374"
         transform="translate(356.985,118.60895)">
        <text
           xml:space="preserve"
           transform="scale(1,-1)"
           style="font-variant:normal;font-weight:normal;font-size:9px;font-family:LMRoman10;-inkscape-font-specification:LMRoman10-Regular;writing-mode:lr-tb;fill:#000000;fill-opacity:1;fill-rule:nonzero;stroke:none"
           id="text378"><tspan
             x="0 5.625 10.125 15.129 19.629 22.625999 28.997999 33.498001 36 40.5 45.504002 49.5"
             y="0"
             id="tspan376">Long Balance</tspan></text>
      </g>
    </g>
    <g
       id="g380">
      <g
         id="g382"
         clip-path="url(#clipPath386)">
        <path
           d="m 339.705,95.044263 h 15.84 v 15.839997 h -15.84 z"
           style="fill:#ffffff;fill-opacity:1;fill-rule:nonzero;stroke:none"
           id="path388" />
        <path
           d="m 339.705,102.96426 h 15.84"
           style="fill:none;stroke:#00a1d5;stroke-width:0.886227;stroke-linecap:butt;stroke-linejoin:round;stroke-miterlimit:10;stroke-dasharray:none;stroke-opacity:1"
           id="path390" />
      </g>
    </g>
    <g
       id="g392">
      <g
         id="g394"
         transform="translate(356.985,100.71426)">
        <text
           xml:space="preserve"
           transform="scale(1,-1)"
           style="font-variant:normal;font-weight:normal;font-size:9px;font-family:LMRoman10;-inkscape-font-specification:LMRoman10-Regular;writing-mode:lr-tb;fill:#000000;fill-opacity:1;fill-rule:nonzero;stroke:none"
           id="text398"><tspan
             x="0 5.0040002 10.008 14.508 18.035999 21.537001 24.534 30.906 35.405998 37.908001 42.408001 47.411999 51.408001"
             y="0"
             id="tspan396">Short Balance</tspan></text>
      </g>
    </g>
  </g>
</svg>
