<?xml version="1.0" encoding="UTF-8" standalone="no"?>
<!-- Created with Inkscape (http://www.inkscape.org/) -->

<svg
   version="1.1"
   id="svg2"
   width="960"
   height="384"
   viewBox="0 0 960 384"
   xmlns="http://www.w3.org/2000/svg"
   xmlns:svg="http://www.w3.org/2000/svg">
  <defs
     id="defs6">
    <clipPath
       clipPathUnits="userSpaceOnUse"
       id="clipPath20">
      <path
         d="m 71.6,27.446875 h 634 V 273.6 h -634 z"
         id="path18" />
    </clipPath>
    <clipPath
       clipPathUnits="userSpaceOnUse"
       id="clipPath40">
      <path
         d="m 71.6,27.446875 h 634 V 273.6 h -634 z"
         id="path38" />
    </clipPath>
    <clipPath
       clipPathUnits="userSpaceOnUse"
       id="clipPath60">
      <path
         d="m 71.6,27.446875 h 634 V 273.6 h -634 z"
         id="path58" />
    </clipPath>
    <clipPath
       clipPathUnits="userSpaceOnUse"
       id="clipPath80">
      <path
         d="m 71.6,27.446875 h 634 V 273.6 h -634 z"
         id="path78" />
    </clipPath>
    <clipPath
       clipPathUnits="userSpaceOnUse"
       id="clipPath100">
      <path
         d="m 71.6,27.446875 h 634 V 273.6 h -634 z"
         id="path98" />
    </clipPath>
    <clipPath
       clipPathUnits="userSpaceOnUse"
       id="clipPath120">
      <path
         d="m 71.6,27.446875 h 634 V 273.6 h -634 z"
         id="path118" />
    </clipPath>
    <clipPath
       clipPathUnits="userSpaceOnUse"
       id="clipPath140">
      <path
         d="m 71.6,27.446875 h 634 V 273.6 h -634 z"
         id="path138" />
    </clipPath>
    <clipPath
       clipPathUnits="userSpaceOnUse"
       id="clipPath160">
      <path
         d="m 71.6,27.446875 h 634 V 273.6 h -634 z"
         id="path158" />
    </clipPath>
    <clipPath
       clipPathUnits="userSpaceOnUse"
       id="clipPath180">
      <path
         d="m 71.6,27.446875 h 634 V 273.6 h -634 z"
         id="path178" />
    </clipPath>
    <clipPath
       clipPathUnits="userSpaceOnUse"
       id="clipPath200">
      <path
         d="m 71.6,27.446875 h 634 V 273.6 h -634 z"
         id="path198" />
    </clipPath>
    <clipPath
       clipPathUnits="userSpaceOnUse"
       id="clipPath220">
      <path
         d="m 71.6,27.446875 h 634 V 273.6 h -634 z"
         id="path218" />
    </clipPath>
    <clipPath
       clipPathUnits="userSpaceOnUse"
       id="clipPath240">
      <path
         d="m 71.6,27.446875 h 634 V 273.6 h -634 z"
         id="path238" />
    </clipPath>
    <clipPath
       clipPathUnits="userSpaceOnUse"
       id="clipPath260">
      <path
         d="m 71.6,27.446875 h 634 V 273.6 h -634 z"
         id="path258" />
    </clipPath>
    <clipPath
       clipPathUnits="userSpaceOnUse"
       id="clipPath280">
      <path
         d="m 71.6,27.446875 h 634 V 273.6 h -634 z"
         id="path278" />
    </clipPath>
    <clipPath
       clipPathUnits="userSpaceOnUse"
       id="clipPath294">
      <path
         d="m 71.6,27.446875 h 634 V 273.6 h -634 z"
         id="path292" />
    </clipPath>
    <clipPath
       clipPathUnits="userSpaceOnUse"
       id="clipPath308">
      <path
         d="m 71.6,27.446875 h 634 V 273.6 h -634 z"
         id="path306" />
    </clipPath>
    <clipPath
       clipPathUnits="userSpaceOnUse"
       id="clipPath322">
      <path
         d="m 71.6,27.446875 h 634 V 273.6 h -634 z"
         id="path320" />
    </clipPath>
    <clipPath
       clipPathUnits="userSpaceOnUse"
       id="clipPath336">
      <path
         d="m 71.6,27.446875 h 634 V 273.6 h -634 z"
         id="path334" />
    </clipPath>
    <clipPath
       clipPathUnits="userSpaceOnUse"
       id="clipPath350">
      <path
         d="m 71.6,27.446875 h 634 V 273.6 h -634 z"
         id="path348" />
    </clipPath>
    <clipPath
       clipPathUnits="userSpaceOnUse"
       id="clipPath364">
      <path
         d="m 71.6,27.446875 h 634 V 273.6 h -634 z"
         id="path362" />
    </clipPath>
    <clipPath
       clipPathUnits="userSpaceOnUse"
       id="clipPath378">
      <path
         d="m 71.6,27.446875 h 634 V 273.6 h -634 z"
         id="path376" />
    </clipPath>
    <clipPath
       clipPathUnits="userSpaceOnUse"
       id="clipPath392">
      <path
         d="m 71.6,27.446875 h 634 V 273.6 h -634 z"
         id="path390" />
    </clipPath>
    <clipPath
       clipPathUnits="userSpaceOnUse"
       id="clipPath406">
      <path
         d="m 71.6,27.446875 h 634 V 273.6 h -634 z"
         id="path404" />
    </clipPath>
    <clipPath
       clipPathUnits="userSpaceOnUse"
       id="clipPath420">
      <path
         d="m 71.6,27.446875 h 634 V 273.6 h -634 z"
         id="path418" />
    </clipPath>
    <clipPath
       clipPathUnits="userSpaceOnUse"
       id="clipPath434">
      <path
         d="m 71.6,27.446875 h 634 V 273.6 h -634 z"
         id="path432" />
    </clipPath>
    <clipPath
       clipPathUnits="userSpaceOnUse"
       id="clipPath448">
      <path
         d="m 71.6,27.446875 h 634 V 273.6 h -634 z"
         id="path446" />
    </clipPath>
    <clipPath
       clipPathUnits="userSpaceOnUse"
       id="clipPath462">
      <path
         d="m 71.6,27.446875 h 634 V 273.6 h -634 z"
         id="path460" />
    </clipPath>
    <clipPath
       clipPathUnits="userSpaceOnUse"
       id="clipPath476">
      <path
         d="m 71.6,27.446875 h 634 V 273.6 h -634 z"
         id="path474" />
    </clipPath>
    <clipPath
       clipPathUnits="userSpaceOnUse"
       id="clipPath496">
      <path
         d="m 71.6,27.446875 h 634 V 273.6 h -634 z"
         id="path494" />
    </clipPath>
    <clipPath
       clipPathUnits="userSpaceOnUse"
       id="clipPath516">
      <path
         d="m 71.6,27.446875 h 634 V 273.6 h -634 z"
         id="path514" />
    </clipPath>
    <clipPath
       clipPathUnits="userSpaceOnUse"
       id="clipPath536">
      <path
         d="m 71.6,27.446875 h 634 V 273.6 h -634 z"
         id="path534" />
    </clipPath>
    <clipPath
       clipPathUnits="userSpaceOnUse"
       id="clipPath550">
      <path
         d="m 71.6,27.446875 h 634 V 273.6 h -634 z"
         id="path548" />
    </clipPath>
    <clipPath
       clipPathUnits="userSpaceOnUse"
       id="clipPath564">
      <path
         d="m 71.6,27.446875 h 634 V 273.6 h -634 z"
         id="path562" />
    </clipPath>
    <clipPath
       clipPathUnits="userSpaceOnUse"
       id="clipPath578">
      <path
         d="m 71.6,27.446875 h 634 V 273.6 h -634 z"
         id="path576" />
    </clipPath>
  </defs>
  <g
     id="g8"
     transform="matrix(1.3333333,0,0,-1.3333333,0,384)">
    <path
       d="M 0,0 H 720 V 288 H 0 Z"
       style="fill:#ffffff;fill-opacity:1;fill-rule:nonzero;stroke:#ffffff;stroke-width:1;stroke-linecap:butt;stroke-linejoin:miter;stroke-miterlimit:10;stroke-dasharray:none;stroke-opacity:1"
       id="path10" />
    <path
       d="m 71.6,27.446875 h 634 V 273.6 h -634 z"
       style="fill:#ffffff;fill-opacity:1;fill-rule:nonzero;stroke:none"
       id="path12" />
    <g
       id="g14">
      <g
         id="g16"
         clip-path="url(#clipPath20)">
        <path
           d="M 100.41818,27.446875 V 273.6"
           style="fill:none;stroke:#808080;stroke-width:0.1;stroke-linecap:square;stroke-linejoin:round;stroke-miterlimit:10;stroke-dasharray:none;stroke-opacity:0.3"
           id="path22" />
      </g>
    </g>
    <g
       id="g24">
      <path
         d="m 100.41818,27.446875 v -2.75"
         style="fill:#808080;fill-opacity:1;fill-rule:nonzero;stroke:#808080;stroke-width:1;stroke-linecap:butt;stroke-linejoin:round;stroke-miterlimit:10;stroke-dasharray:none;stroke-opacity:1"
         id="path26" />
      <g
         id="g28"
         transform="translate(84.910369,16.540625)">
        <text
           xml:space="preserve"
           transform="scale(1,-1)"
           style="font-variant:normal;font-weight:normal;font-size:8.8px;font-family:LMRoman10;-inkscape-font-specification:LMRoman10-Regular;writing-mode:lr-tb;fill:#4d4d4d;fill-opacity:1;fill-rule:nonzero;stroke:none"
           id="text32"><tspan
             x="0 4.5232 8.9231997 13.816 18.708799 23.108801 26.558399"
             y="0"
             id="tspan30">January</tspan></text>
      </g>
    </g>
    <g
       id="g34">
      <g
         id="g36"
         clip-path="url(#clipPath40)">
        <path
           d="M 149.3752,27.446875 V 273.6"
           style="fill:none;stroke:#808080;stroke-width:0.1;stroke-linecap:square;stroke-linejoin:round;stroke-miterlimit:10;stroke-dasharray:none;stroke-opacity:0.3"
           id="path42" />
      </g>
    </g>
    <g
       id="g44">
      <path
         d="m 149.3752,27.446875 v -2.75"
         style="fill:#808080;fill-opacity:1;fill-rule:nonzero;stroke:#808080;stroke-width:1;stroke-linecap:butt;stroke-linejoin:round;stroke-miterlimit:10;stroke-dasharray:none;stroke-opacity:1"
         id="path46" />
      <g
         id="g48"
         transform="translate(131.78927,16.446875)">
        <text
           xml:space="preserve"
           transform="scale(1,-1)"
           style="font-variant:normal;font-weight:normal;font-size:8.8px;font-family:LMRoman10;-inkscape-font-specification:LMRoman10-Regular;writing-mode:lr-tb;fill:#4d4d4d;fill-opacity:1;fill-rule:nonzero;stroke:none"
           id="text52"><tspan
             x="0 5.7463999 9.6535997 14.5464 17.996 22.8888 27.288799 30.7384"
             y="0"
             id="tspan50">February</tspan></text>
      </g>
    </g>
    <g
       id="g54">
      <g
         id="g56"
         clip-path="url(#clipPath60)">
        <path
           d="M 193.59445,27.446875 V 273.6"
           style="fill:none;stroke:#808080;stroke-width:0.1;stroke-linecap:square;stroke-linejoin:round;stroke-miterlimit:10;stroke-dasharray:none;stroke-opacity:0.3"
           id="path62" />
      </g>
    </g>
    <g
       id="g64">
      <path
         d="m 193.59445,27.446875 v -2.75"
         style="fill:#808080;fill-opacity:1;fill-rule:nonzero;stroke:#808080;stroke-width:1;stroke-linecap:butt;stroke-linejoin:round;stroke-miterlimit:10;stroke-dasharray:none;stroke-opacity:1"
         id="path66" />
      <g
         id="g68"
         transform="translate(181.30538,16.446875)">
        <text
           xml:space="preserve"
           transform="scale(1,-1)"
           style="font-variant:normal;font-weight:normal;font-size:8.8px;font-family:LMRoman10;-inkscape-font-specification:LMRoman10-Regular;writing-mode:lr-tb;fill:#4d4d4d;fill-opacity:1;fill-rule:nonzero;stroke:none"
           id="text72"><tspan
             x="0 8.0696001 12.4696 15.9192 19.826401"
             y="0"
             id="tspan70">March</tspan></text>
      </g>
    </g>
    <g
       id="g74">
      <g
         id="g76"
         clip-path="url(#clipPath80)">
        <path
           d="M 242.55147,27.446875 V 273.6"
           style="fill:none;stroke:#808080;stroke-width:0.1;stroke-linecap:square;stroke-linejoin:round;stroke-miterlimit:10;stroke-dasharray:none;stroke-opacity:0.3"
           id="path82" />
      </g>
    </g>
    <g
       id="g84">
      <path
         d="m 242.55147,27.446875 v -2.75"
         style="fill:#808080;fill-opacity:1;fill-rule:nonzero;stroke:#808080;stroke-width:1;stroke-linecap:butt;stroke-linejoin:round;stroke-miterlimit:10;stroke-dasharray:none;stroke-opacity:1"
         id="path86" />
      <g
         id="g88"
         transform="translate(232.69209,16.259375)">
        <text
           xml:space="preserve"
           transform="scale(1,-1)"
           style="font-variant:normal;font-weight:normal;font-size:8.8px;font-family:LMRoman10;-inkscape-font-specification:LMRoman10-Regular;writing-mode:lr-tb;fill:#4d4d4d;fill-opacity:1;fill-rule:nonzero;stroke:none"
           id="text92"><tspan
             x="0 6.5999999 11.4928 14.9424 17.3888"
             y="0"
             id="tspan90">April</tspan></text>
      </g>
    </g>
    <g
       id="g94">
      <g
         id="g96"
         clip-path="url(#clipPath100)">
        <path
           d="M 289.92923,27.446875 V 273.6"
           style="fill:none;stroke:#808080;stroke-width:0.1;stroke-linecap:square;stroke-linejoin:round;stroke-miterlimit:10;stroke-dasharray:none;stroke-opacity:0.3"
           id="path102" />
      </g>
    </g>
    <g
       id="g104">
      <path
         d="m 289.92923,27.446875 v -2.75"
         style="fill:#808080;fill-opacity:1;fill-rule:nonzero;stroke:#808080;stroke-width:1;stroke-linecap:butt;stroke-linejoin:round;stroke-miterlimit:10;stroke-dasharray:none;stroke-opacity:1"
         id="path106" />
      <g
         id="g108"
         transform="translate(281.41361,16.540625)">
        <text
           xml:space="preserve"
           transform="scale(1,-1)"
           style="font-variant:normal;font-weight:normal;font-size:8.8px;font-family:LMRoman10;-inkscape-font-specification:LMRoman10-Regular;writing-mode:lr-tb;fill:#4d4d4d;fill-opacity:1;fill-rule:nonzero;stroke:none"
           id="text112"><tspan
             x="0 8.0696001 12.4696"
             y="0"
             id="tspan110">May</tspan></text>
      </g>
    </g>
    <g
       id="g114">
      <g
         id="g116"
         clip-path="url(#clipPath120)">
        <path
           d="M 338.88625,27.446875 V 273.6"
           style="fill:none;stroke:#808080;stroke-width:0.1;stroke-linecap:square;stroke-linejoin:round;stroke-miterlimit:10;stroke-dasharray:none;stroke-opacity:0.3"
           id="path122" />
      </g>
    </g>
    <g
       id="g124">
      <path
         d="m 338.88625,27.446875 v -2.75"
         style="fill:#808080;fill-opacity:1;fill-rule:nonzero;stroke:#808080;stroke-width:1;stroke-linecap:butt;stroke-linejoin:round;stroke-miterlimit:10;stroke-dasharray:none;stroke-opacity:1"
         id="path126" />
      <g
         id="g128"
         transform="translate(329.83156,16.446875)">
        <text
           xml:space="preserve"
           transform="scale(1,-1)"
           style="font-variant:normal;font-weight:normal;font-size:8.8px;font-family:LMRoman10;-inkscape-font-specification:LMRoman10-Regular;writing-mode:lr-tb;fill:#4d4d4d;fill-opacity:1;fill-rule:nonzero;stroke:none"
           id="text132"><tspan
             x="0 4.5232 9.4160004 14.3088"
             y="0"
             id="tspan130">June</tspan></text>
      </g>
    </g>
    <g
       id="g134">
      <g
         id="g136"
         clip-path="url(#clipPath140)">
        <path
           d="M 386.26401,27.446875 V 273.6"
           style="fill:none;stroke:#808080;stroke-width:0.1;stroke-linecap:square;stroke-linejoin:round;stroke-miterlimit:10;stroke-dasharray:none;stroke-opacity:0.3"
           id="path142" />
      </g>
    </g>
    <g
       id="g144">
      <path
         d="m 386.26401,27.446875 v -2.75"
         style="fill:#808080;fill-opacity:1;fill-rule:nonzero;stroke:#808080;stroke-width:1;stroke-linecap:butt;stroke-linejoin:round;stroke-miterlimit:10;stroke-dasharray:none;stroke-opacity:1"
         id="path146" />
      <g
         id="g148"
         transform="translate(378.05308,16.446875)">
        <text
           xml:space="preserve"
           transform="scale(1,-1)"
           style="font-variant:normal;font-weight:normal;font-size:8.8px;font-family:LMRoman10;-inkscape-font-specification:LMRoman10-Regular;writing-mode:lr-tb;fill:#4d4d4d;fill-opacity:1;fill-rule:nonzero;stroke:none"
           id="text152"><tspan
             x="0 4.5232 9.4160004 11.8624"
             y="0"
             id="tspan150">July</tspan></text>
      </g>
    </g>
    <g
       id="g154">
      <g
         id="g156"
         clip-path="url(#clipPath160)">
        <path
           d="M 435.22103,27.446875 V 273.6"
           style="fill:none;stroke:#808080;stroke-width:0.1;stroke-linecap:square;stroke-linejoin:round;stroke-miterlimit:10;stroke-dasharray:none;stroke-opacity:0.3"
           id="path162" />
      </g>
    </g>
    <g
       id="g164">
      <path
         d="m 435.22103,27.446875 v -2.75"
         style="fill:#808080;fill-opacity:1;fill-rule:nonzero;stroke:#808080;stroke-width:1;stroke-linecap:butt;stroke-linejoin:round;stroke-miterlimit:10;stroke-dasharray:none;stroke-opacity:1"
         id="path166" />
      <g
         id="g168"
         transform="translate(421.47103,16.259375)">
        <text
           xml:space="preserve"
           transform="scale(1,-1)"
           style="font-variant:normal;font-weight:normal;font-size:8.8px;font-family:LMRoman10;-inkscape-font-specification:LMRoman10-Regular;writing-mode:lr-tb;fill:#4d4d4d;fill-opacity:1;fill-rule:nonzero;stroke:none"
           id="text172"><tspan
             x="0 6.5999999 11.4928 15.8928 20.785601 24.2528"
             y="0"
             id="tspan170">August</tspan></text>
      </g>
    </g>
    <g
       id="g174">
      <g
         id="g176"
         clip-path="url(#clipPath180)">
        <path
           d="M 484.17805,27.446875 V 273.6"
           style="fill:none;stroke:#808080;stroke-width:0.1;stroke-linecap:square;stroke-linejoin:round;stroke-miterlimit:10;stroke-dasharray:none;stroke-opacity:0.3"
           id="path182" />
      </g>
    </g>
    <g
       id="g184">
      <path
         d="m 484.17805,27.446875 v -2.75"
         style="fill:#808080;fill-opacity:1;fill-rule:nonzero;stroke:#808080;stroke-width:1;stroke-linecap:butt;stroke-linejoin:round;stroke-miterlimit:10;stroke-dasharray:none;stroke-opacity:1"
         id="path186" />
      <g
         id="g188"
         transform="translate(463.99837,16.353125)">
        <text
           xml:space="preserve"
           transform="scale(1,-1)"
           style="font-variant:normal;font-weight:normal;font-size:8.8px;font-family:LMRoman10;-inkscape-font-specification:LMRoman10-Regular;writing-mode:lr-tb;fill:#4d4d4d;fill-opacity:1;fill-rule:nonzero;stroke:none"
           id="text192"><tspan
             x="0 4.8927999 8.8000002 13.6928 17.115999 21.023199 28.3536 33.246399 37.153599"
             y="0"
             id="tspan190">September</tspan></text>
      </g>
    </g>
    <g
       id="g194">
      <g
         id="g196"
         clip-path="url(#clipPath200)">
        <path
           d="M 531.55582,27.446875 V 273.6"
           style="fill:none;stroke:#808080;stroke-width:0.1;stroke-linecap:square;stroke-linejoin:round;stroke-miterlimit:10;stroke-dasharray:none;stroke-opacity:0.3"
           id="path202" />
      </g>
    </g>
    <g
       id="g204">
      <path
         d="m 531.55582,27.446875 v -2.75"
         style="fill:#808080;fill-opacity:1;fill-rule:nonzero;stroke:#808080;stroke-width:1;stroke-linecap:butt;stroke-linejoin:round;stroke-miterlimit:10;stroke-dasharray:none;stroke-opacity:1"
         id="path206" />
      <g
         id="g208"
         transform="translate(516.22769,16.446875)">
        <text
           xml:space="preserve"
           transform="scale(1,-1)"
           style="font-variant:normal;font-weight:normal;font-size:8.8px;font-family:LMRoman10;-inkscape-font-specification:LMRoman10-Regular;writing-mode:lr-tb;fill:#4d4d4d;fill-opacity:1;fill-rule:nonzero;stroke:none"
           id="text212"><tspan
             x="0 6.8463998 10.7536 14.1768 18.576799 23.469601 27.376801"
             y="0"
             id="tspan210">October</tspan></text>
      </g>
    </g>
    <g
       id="g214">
      <g
         id="g216"
         clip-path="url(#clipPath220)">
        <path
           d="M 580.51284,27.446875 V 273.6"
           style="fill:none;stroke:#808080;stroke-width:0.1;stroke-linecap:square;stroke-linejoin:round;stroke-miterlimit:10;stroke-dasharray:none;stroke-opacity:0.3"
           id="path222" />
      </g>
    </g>
    <g
       id="g224">
      <path
         d="m 580.51284,27.446875 v -2.75"
         style="fill:#808080;fill-opacity:1;fill-rule:nonzero;stroke:#808080;stroke-width:1;stroke-linecap:butt;stroke-linejoin:round;stroke-miterlimit:10;stroke-dasharray:none;stroke-opacity:1"
         id="path226" />
      <g
         id="g228"
         transform="translate(561.05971,16.446875)">
        <text
           xml:space="preserve"
           transform="scale(1,-1)"
           style="font-variant:normal;font-weight:normal;font-size:8.8px;font-family:LMRoman10;-inkscape-font-specification:LMRoman10-Regular;writing-mode:lr-tb;fill:#4d4d4d;fill-opacity:1;fill-rule:nonzero;stroke:none"
           id="text232"><tspan
             x="0 6.5999999 11 15.6464 19.5536 26.884001 31.7768 35.683998"
             y="0"
             id="tspan230">November</tspan></text>
      </g>
    </g>
    <g
       id="g234">
      <g
         id="g236"
         clip-path="url(#clipPath240)">
        <path
           d="M 627.8906,27.446875 V 273.6"
           style="fill:none;stroke:#808080;stroke-width:0.1;stroke-linecap:square;stroke-linejoin:round;stroke-miterlimit:10;stroke-dasharray:none;stroke-opacity:0.3"
           id="path242" />
      </g>
    </g>
    <g
       id="g244">
      <path
         d="m 627.8906,27.446875 v -2.75"
         style="fill:#808080;fill-opacity:1;fill-rule:nonzero;stroke:#808080;stroke-width:1;stroke-linecap:butt;stroke-linejoin:round;stroke-miterlimit:10;stroke-dasharray:none;stroke-opacity:1"
         id="path246" />
      <g
         id="g248"
         transform="translate(608.98435,16.446875)">
        <text
           xml:space="preserve"
           transform="scale(1,-1)"
           style="font-variant:normal;font-weight:normal;font-size:8.8px;font-family:LMRoman10;-inkscape-font-specification:LMRoman10-Regular;writing-mode:lr-tb;fill:#4d4d4d;fill-opacity:1;fill-rule:nonzero;stroke:none"
           id="text252"><tspan
             x="0 6.7231998 10.6304 14.5376 18.444799 25.7752 30.667999 34.575199"
             y="0"
             id="tspan250">December</tspan></text>
      </g>
    </g>
    <g
       id="g254">
      <g
         id="g256"
         clip-path="url(#clipPath260)">
        <path
           d="M 676.84762,27.446875 V 273.6"
           style="fill:none;stroke:#808080;stroke-width:0.1;stroke-linecap:square;stroke-linejoin:round;stroke-miterlimit:10;stroke-dasharray:none;stroke-opacity:0.3"
           id="path262" />
      </g>
    </g>
    <g
       id="g264">
      <path
         d="m 676.84762,27.446875 v -2.75"
         style="fill:#808080;fill-opacity:1;fill-rule:nonzero;stroke:#808080;stroke-width:1;stroke-linecap:butt;stroke-linejoin:round;stroke-miterlimit:10;stroke-dasharray:none;stroke-opacity:1"
         id="path266" />
      <g
         id="g268"
         transform="translate(661.33981,16.540625)">
        <text
           xml:space="preserve"
           transform="scale(1,-1)"
           style="font-variant:normal;font-weight:normal;font-size:8.8px;font-family:LMRoman10;-inkscape-font-specification:LMRoman10-Regular;writing-mode:lr-tb;fill:#4d4d4d;fill-opacity:1;fill-rule:nonzero;stroke:none"
           id="text272"><tspan
             x="0 4.5232 8.9231997 13.816 18.708799 23.108801 26.558399"
             y="0"
             id="tspan270">January</tspan></text>
      </g>
    </g>
    <g
       id="g274">
      <g
         id="g276"
         clip-path="url(#clipPath280)">
        <path
           d="M 75.939671,27.446875 V 273.6"
           style="fill:none;stroke:#808080;stroke-width:0.1;stroke-linecap:square;stroke-linejoin:round;stroke-miterlimit:10;stroke-dasharray:none;stroke-opacity:0.3"
           id="path282" />
      </g>
    </g>
    <g
       id="g284">
      <path
         d="m 75.939671,27.446875 v -1.375"
         style="fill:#808080;fill-opacity:1;fill-rule:nonzero;stroke:#808080;stroke-width:1;stroke-linecap:butt;stroke-linejoin:round;stroke-miterlimit:10;stroke-dasharray:none;stroke-opacity:1"
         id="path286" />
    </g>
    <g
       id="g288">
      <g
         id="g290"
         clip-path="url(#clipPath294)">
        <path
           d="M 124.89669,27.446875 V 273.6"
           style="fill:none;stroke:#808080;stroke-width:0.1;stroke-linecap:square;stroke-linejoin:round;stroke-miterlimit:10;stroke-dasharray:none;stroke-opacity:0.3"
           id="path296" />
      </g>
    </g>
    <g
       id="g298">
      <path
         d="m 124.89669,27.446875 v -1.375"
         style="fill:#808080;fill-opacity:1;fill-rule:nonzero;stroke:#808080;stroke-width:1;stroke-linecap:butt;stroke-linejoin:round;stroke-miterlimit:10;stroke-dasharray:none;stroke-opacity:1"
         id="path300" />
    </g>
    <g
       id="g302">
      <g
         id="g304"
         clip-path="url(#clipPath308)">
        <path
           d="M 171.48482,27.446875 V 273.6"
           style="fill:none;stroke:#808080;stroke-width:0.1;stroke-linecap:square;stroke-linejoin:round;stroke-miterlimit:10;stroke-dasharray:none;stroke-opacity:0.3"
           id="path310" />
      </g>
    </g>
    <g
       id="g312">
      <path
         d="m 171.48482,27.446875 v -1.375"
         style="fill:#808080;fill-opacity:1;fill-rule:nonzero;stroke:#808080;stroke-width:1;stroke-linecap:butt;stroke-linejoin:round;stroke-miterlimit:10;stroke-dasharray:none;stroke-opacity:1"
         id="path314" />
    </g>
    <g
       id="g316">
      <g
         id="g318"
         clip-path="url(#clipPath322)">
        <path
           d="M 218.07296,27.446875 V 273.6"
           style="fill:none;stroke:#808080;stroke-width:0.1;stroke-linecap:square;stroke-linejoin:round;stroke-miterlimit:10;stroke-dasharray:none;stroke-opacity:0.3"
           id="path324" />
      </g>
    </g>
    <g
       id="g326">
      <path
         d="m 218.07296,27.446875 v -1.375"
         style="fill:#808080;fill-opacity:1;fill-rule:nonzero;stroke:#808080;stroke-width:1;stroke-linecap:butt;stroke-linejoin:round;stroke-miterlimit:10;stroke-dasharray:none;stroke-opacity:1"
         id="path328" />
    </g>
    <g
       id="g330">
      <g
         id="g332"
         clip-path="url(#clipPath336)">
        <path
           d="M 266.24035,27.446875 V 273.6"
           style="fill:none;stroke:#808080;stroke-width:0.1;stroke-linecap:square;stroke-linejoin:round;stroke-miterlimit:10;stroke-dasharray:none;stroke-opacity:0.3"
           id="path338" />
      </g>
    </g>
    <g
       id="g340">
      <path
         d="m 266.24035,27.446875 v -1.375"
         style="fill:#808080;fill-opacity:1;fill-rule:nonzero;stroke:#808080;stroke-width:1;stroke-linecap:butt;stroke-linejoin:round;stroke-miterlimit:10;stroke-dasharray:none;stroke-opacity:1"
         id="path342" />
    </g>
    <g
       id="g344">
      <g
         id="g346"
         clip-path="url(#clipPath350)">
        <path
           d="M 314.40774,27.446875 V 273.6"
           style="fill:none;stroke:#808080;stroke-width:0.1;stroke-linecap:square;stroke-linejoin:round;stroke-miterlimit:10;stroke-dasharray:none;stroke-opacity:0.3"
           id="path352" />
      </g>
    </g>
    <g
       id="g354">
      <path
         d="m 314.40774,27.446875 v -1.375"
         style="fill:#808080;fill-opacity:1;fill-rule:nonzero;stroke:#808080;stroke-width:1;stroke-linecap:butt;stroke-linejoin:round;stroke-miterlimit:10;stroke-dasharray:none;stroke-opacity:1"
         id="path356" />
    </g>
    <g
       id="g358">
      <g
         id="g360"
         clip-path="url(#clipPath364)">
        <path
           d="M 362.57513,27.446875 V 273.6"
           style="fill:none;stroke:#808080;stroke-width:0.1;stroke-linecap:square;stroke-linejoin:round;stroke-miterlimit:10;stroke-dasharray:none;stroke-opacity:0.3"
           id="path366" />
      </g>
    </g>
    <g
       id="g368">
      <path
         d="m 362.57513,27.446875 v -1.375"
         style="fill:#808080;fill-opacity:1;fill-rule:nonzero;stroke:#808080;stroke-width:1;stroke-linecap:butt;stroke-linejoin:round;stroke-miterlimit:10;stroke-dasharray:none;stroke-opacity:1"
         id="path370" />
    </g>
    <g
       id="g372">
      <g
         id="g374"
         clip-path="url(#clipPath378)">
        <path
           d="M 410.74252,27.446875 V 273.6"
           style="fill:none;stroke:#808080;stroke-width:0.1;stroke-linecap:square;stroke-linejoin:round;stroke-miterlimit:10;stroke-dasharray:none;stroke-opacity:0.3"
           id="path380" />
      </g>
    </g>
    <g
       id="g382">
      <path
         d="m 410.74252,27.446875 v -1.375"
         style="fill:#808080;fill-opacity:1;fill-rule:nonzero;stroke:#808080;stroke-width:1;stroke-linecap:butt;stroke-linejoin:round;stroke-miterlimit:10;stroke-dasharray:none;stroke-opacity:1"
         id="path384" />
    </g>
    <g
       id="g386">
      <g
         id="g388"
         clip-path="url(#clipPath392)">
        <path
           d="M 459.69954,27.446875 V 273.6"
           style="fill:none;stroke:#808080;stroke-width:0.1;stroke-linecap:square;stroke-linejoin:round;stroke-miterlimit:10;stroke-dasharray:none;stroke-opacity:0.3"
           id="path394" />
      </g>
    </g>
    <g
       id="g396">
      <path
         d="m 459.69954,27.446875 v -1.375"
         style="fill:#808080;fill-opacity:1;fill-rule:nonzero;stroke:#808080;stroke-width:1;stroke-linecap:butt;stroke-linejoin:round;stroke-miterlimit:10;stroke-dasharray:none;stroke-opacity:1"
         id="path398" />
    </g>
    <g
       id="g400">
      <g
         id="g402"
         clip-path="url(#clipPath406)">
        <path
           d="M 507.86694,27.446875 V 273.6"
           style="fill:none;stroke:#808080;stroke-width:0.1;stroke-linecap:square;stroke-linejoin:round;stroke-miterlimit:10;stroke-dasharray:none;stroke-opacity:0.3"
           id="path408" />
      </g>
    </g>
    <g
       id="g410">
      <path
         d="m 507.86694,27.446875 v -1.375"
         style="fill:#808080;fill-opacity:1;fill-rule:nonzero;stroke:#808080;stroke-width:1;stroke-linecap:butt;stroke-linejoin:round;stroke-miterlimit:10;stroke-dasharray:none;stroke-opacity:1"
         id="path412" />
    </g>
    <g
       id="g414">
      <g
         id="g416"
         clip-path="url(#clipPath420)">
        <path
           d="M 556.03433,27.446875 V 273.6"
           style="fill:none;stroke:#808080;stroke-width:0.1;stroke-linecap:square;stroke-linejoin:round;stroke-miterlimit:10;stroke-dasharray:none;stroke-opacity:0.3"
           id="path422" />
      </g>
    </g>
    <g
       id="g424">
      <path
         d="m 556.03433,27.446875 v -1.375"
         style="fill:#808080;fill-opacity:1;fill-rule:nonzero;stroke:#808080;stroke-width:1;stroke-linecap:butt;stroke-linejoin:round;stroke-miterlimit:10;stroke-dasharray:none;stroke-opacity:1"
         id="path426" />
    </g>
    <g
       id="g428">
      <g
         id="g430"
         clip-path="url(#clipPath434)">
        <path
           d="M 604.20172,27.446875 V 273.6"
           style="fill:none;stroke:#808080;stroke-width:0.1;stroke-linecap:square;stroke-linejoin:round;stroke-miterlimit:10;stroke-dasharray:none;stroke-opacity:0.3"
           id="path436" />
      </g>
    </g>
    <g
       id="g438">
      <path
         d="m 604.20172,27.446875 v -1.375"
         style="fill:#808080;fill-opacity:1;fill-rule:nonzero;stroke:#808080;stroke-width:1;stroke-linecap:butt;stroke-linejoin:round;stroke-miterlimit:10;stroke-dasharray:none;stroke-opacity:1"
         id="path440" />
    </g>
    <g
       id="g442">
      <g
         id="g444"
         clip-path="url(#clipPath448)">
        <path
           d="M 652.36911,27.446875 V 273.6"
           style="fill:none;stroke:#808080;stroke-width:0.1;stroke-linecap:square;stroke-linejoin:round;stroke-miterlimit:10;stroke-dasharray:none;stroke-opacity:0.3"
           id="path450" />
      </g>
    </g>
    <g
       id="g452">
      <path
         d="m 652.36911,27.446875 v -1.375"
         style="fill:#808080;fill-opacity:1;fill-rule:nonzero;stroke:#808080;stroke-width:1;stroke-linecap:butt;stroke-linejoin:round;stroke-miterlimit:10;stroke-dasharray:none;stroke-opacity:1"
         id="path454" />
    </g>
    <g
       id="g456">
      <g
         id="g458"
         clip-path="url(#clipPath462)">
        <path
           d="M 701.32613,27.446875 V 273.6"
           style="fill:none;stroke:#808080;stroke-width:0.1;stroke-linecap:square;stroke-linejoin:round;stroke-miterlimit:10;stroke-dasharray:none;stroke-opacity:0.3"
           id="path464" />
      </g>
    </g>
    <g
       id="g466">
      <path
         d="m 701.32613,27.446875 v -1.375"
         style="fill:#808080;fill-opacity:1;fill-rule:nonzero;stroke:#808080;stroke-width:1;stroke-linecap:butt;stroke-linejoin:round;stroke-miterlimit:10;stroke-dasharray:none;stroke-opacity:1"
         id="path468" />
    </g>
    <g
       id="g470">
      <g
         id="g472"
         clip-path="url(#clipPath476)">
        <path
           d="m 71.6,52.868093 h 634"
           style="fill:none;stroke:#808080;stroke-width:0.1;stroke-linecap:square;stroke-linejoin:round;stroke-miterlimit:10;stroke-dasharray:none;stroke-opacity:0.3"
           id="path478" />
      </g>
    </g>
    <g
       id="g480">
      <path
         d="M 71.6,52.868093 H 68.85"
         style="fill:#808080;fill-opacity:1;fill-rule:nonzero;stroke:#808080;stroke-width:1;stroke-linecap:butt;stroke-linejoin:round;stroke-miterlimit:10;stroke-dasharray:none;stroke-opacity:1"
         id="path482" />
      <g
         id="g484"
         transform="translate(31.35,49.743093)">
        <text
           xml:space="preserve"
           transform="scale(1,-1)"
           style="font-variant:normal;font-weight:normal;font-size:8.8px;font-family:LMRoman10;-inkscape-font-specification:LMRoman10-Regular;writing-mode:lr-tb;fill:#4d4d4d;fill-opacity:1;fill-rule:nonzero;stroke:none"
           id="text488"><tspan
             x="0 4.4000001 6.8463998 11.2464 15.6464 20.0464 22.4928 26.892799 31.292801"
             y="0"
             id="tspan486">4,000,000</tspan></text>
      </g>
    </g>
    <g
       id="g490">
      <g
         id="g492"
         clip-path="url(#clipPath496)">
        <path
           d="m 71.6,129.58765 h 634"
           style="fill:none;stroke:#808080;stroke-width:0.1;stroke-linecap:square;stroke-linejoin:round;stroke-miterlimit:10;stroke-dasharray:none;stroke-opacity:0.3"
           id="path498" />
      </g>
    </g>
    <g
       id="g500">
      <path
         d="M 71.6,129.58765 H 68.85"
         style="fill:#808080;fill-opacity:1;fill-rule:nonzero;stroke:#808080;stroke-width:1;stroke-linecap:butt;stroke-linejoin:round;stroke-miterlimit:10;stroke-dasharray:none;stroke-opacity:1"
         id="path502" />
      <g
         id="g504"
         transform="translate(31.35,126.46265)">
        <text
           xml:space="preserve"
           transform="scale(1,-1)"
           style="font-variant:normal;font-weight:normal;font-size:8.8px;font-family:LMRoman10;-inkscape-font-specification:LMRoman10-Regular;writing-mode:lr-tb;fill:#4d4d4d;fill-opacity:1;fill-rule:nonzero;stroke:none"
           id="text508"><tspan
             x="0 4.4000001 6.8463998 11.2464 15.6464 20.0464 22.4928 26.892799 31.292801"
             y="0"
             id="tspan506">6,000,000</tspan></text>
      </g>
    </g>
    <g
       id="g510">
      <g
         id="g512"
         clip-path="url(#clipPath516)">
        <path
           d="m 71.6,206.3072 h 634"
           style="fill:none;stroke:#808080;stroke-width:0.1;stroke-linecap:square;stroke-linejoin:round;stroke-miterlimit:10;stroke-dasharray:none;stroke-opacity:0.3"
           id="path518" />
      </g>
    </g>
    <g
       id="g520">
      <path
         d="M 71.6,206.3072 H 68.85"
         style="fill:#808080;fill-opacity:1;fill-rule:nonzero;stroke:#808080;stroke-width:1;stroke-linecap:butt;stroke-linejoin:round;stroke-miterlimit:10;stroke-dasharray:none;stroke-opacity:1"
         id="path522" />
      <g
         id="g524"
         transform="translate(31.35,203.1822)">
        <text
           xml:space="preserve"
           transform="scale(1,-1)"
           style="font-variant:normal;font-weight:normal;font-size:8.8px;font-family:LMRoman10;-inkscape-font-specification:LMRoman10-Regular;writing-mode:lr-tb;fill:#4d4d4d;fill-opacity:1;fill-rule:nonzero;stroke:none"
           id="text528"><tspan
             x="0 4.4000001 6.8463998 11.2464 15.6464 20.0464 22.4928 26.892799 31.292801"
             y="0"
             id="tspan526">8,000,000</tspan></text>
      </g>
    </g>
    <g
       id="g530">
      <g
         id="g532"
         clip-path="url(#clipPath536)">
        <path
           d="m 71.6,91.227869 h 634"
           style="fill:none;stroke:#808080;stroke-width:0.1;stroke-linecap:square;stroke-linejoin:round;stroke-miterlimit:10;stroke-dasharray:none;stroke-opacity:0.3"
           id="path538" />
      </g>
    </g>
    <g
       id="g540">
      <path
         d="M 71.6,91.227869 H 70.225"
         style="fill:#808080;fill-opacity:1;fill-rule:nonzero;stroke:#808080;stroke-width:1;stroke-linecap:butt;stroke-linejoin:round;stroke-miterlimit:10;stroke-dasharray:none;stroke-opacity:1"
         id="path542" />
    </g>
    <g
       id="g544">
      <g
         id="g546"
         clip-path="url(#clipPath550)">
        <path
           d="m 71.6,167.94742 h 634"
           style="fill:none;stroke:#808080;stroke-width:0.1;stroke-linecap:square;stroke-linejoin:round;stroke-miterlimit:10;stroke-dasharray:none;stroke-opacity:0.3"
           id="path552" />
      </g>
    </g>
    <g
       id="g554">
      <path
         d="M 71.6,167.94742 H 70.225"
         style="fill:#808080;fill-opacity:1;fill-rule:nonzero;stroke:#808080;stroke-width:1;stroke-linecap:butt;stroke-linejoin:round;stroke-miterlimit:10;stroke-dasharray:none;stroke-opacity:1"
         id="path556" />
    </g>
    <g
       id="g558">
      <g
         id="g560"
         clip-path="url(#clipPath564)">
        <path
           d="m 71.6,244.66698 h 634"
           style="fill:none;stroke:#808080;stroke-width:0.1;stroke-linecap:square;stroke-linejoin:round;stroke-miterlimit:10;stroke-dasharray:none;stroke-opacity:0.3"
           id="path566" />
      </g>
    </g>
    <g
       id="g568">
      <path
         d="M 71.6,244.66698 H 70.225"
         style="fill:#808080;fill-opacity:1;fill-rule:nonzero;stroke:#808080;stroke-width:1;stroke-linecap:butt;stroke-linejoin:round;stroke-miterlimit:10;stroke-dasharray:none;stroke-opacity:1"
         id="path570" />
    </g>
    <g
       id="g572">
      <g
         id="g574"
         clip-path="url(#clipPath578)">
        <path
           d="m 100.41818,102.62615 0.32901,-23.588813 0.13161,-0.929699 0.32901,15.228787 0.13161,-8.891507 0.0658,4.173689 0.19741,44.271713 0.0658,-8.16137 0.39481,-40.657752 0.0658,-3.057347 0.0658,1.135463 0.0658,-1.586476 0.39481,49.465742 0.0658,-0.234 0.0658,1.17346 0.13161,-10.44226 0.0658,2.58452 0.1974,29.77686 0.46062,-56.635638 0.19741,-9.473301 0.19741,58.456259 0.1974,31.61654 0.0658,3.75549 0.0658,-1.6543 0.1316,-9.13821 0.0658,0.18014 0.0658,2.60263 0.1316,12.7823 0.39482,-66.57583 0.26321,-13.68742 0.46061,77.30613 0.26322,-10.65238 0.1974,16.63181 0.46062,-80.42808 0.19741,-9.002734 0.39481,84.148984 0.0658,-0.6234 0.26321,-17.43378 0.19741,21.4432 0.52642,-73.30468 0.13161,-3.10417 0.39481,77.14394 0.0658,-2.1103 0.0658,-1.94686 0.1974,-13.01575 0.19741,17.8048 0.46062,-69.19418 0.1974,-18.75534 0.13161,11.36351 0.26321,30.85262 0.0658,-1.20923 0.0658,-1.67375 0.13161,-11.65576 0.0658,2.31387 0.19741,38.25108 0.0658,-11.07949 0.26321,-33.55441 0.1316,-11.42958 0.26321,-15.991091 0.0658,-0.117832 0.0658,2.060109 0.32901,50.149474 0.19741,-14.96029 0.19741,32.10967 0.52642,-65.45096 0.0658,-0.427406 0.0658,2.917516 0.32901,109.33147 0.0658,-1.07267 0.0658,1.76584 0.0658,-10.33586 0.0658,0.81081 0.0658,-0.10368 0.0658,0.24816 0.19741,11.68711 0.52642,-81.86438 0.1316,-4.36226 0.13161,46.32374 0.1316,45.22852 0.0658,-2.73727 0.13161,-4.19961 0.1974,-23.37445 0.0658,1.84982 0.1316,22.77174 0.0658,-0.16941 0.46062,-84.16419 0.19741,-7.30398 0.46062,100.34304 0.26321,-17.27449 0.1316,7.35255 0.0658,-0.62043 0.39482,-74.41557 0.19741,-10.8024 0.0658,-1.51889 0.1316,45.89083 0.13161,46.15498 0.0658,-1.92548 0.0658,-0.34244 0.0658,2.46009 0.1974,-17.53687 0.0658,-0.60824 0.1974,14.71008 0.59222,-93.67513 0.0658,-1.04098 0.1316,46.2083 0.19741,48.60437 0.1316,1.24069 0.19741,-20.73019 0.0658,-4.92064 0.0658,3.98413 0.1316,11.59349 0.52642,-77.9579 0.13161,-10.15866 0.0658,1.22517 0.32901,39.0898 0.1316,-1.88324 0.19741,-10.12901 0.19741,27.96194 0.32901,-51.22887 0.32901,-28.38832 0.13161,2.164131 0.0658,2.0013 0.32901,67.672909 0.0658,-4.89218 0.1316,-16.25284 0.0658,3.02022 0.13161,35.2652 0.46061,-51.47596 0.0658,-0.34196 0.0658,-2.26334 0.0658,1.80873 0.46062,106.67875 0.26321,-23.98404 0.0658,2.76074 0.13161,8.87025 0.39481,-70.65473 0.19741,-14.59458 0.0658,-0.52525 0.39482,99.64329 0.0658,2.54413 0.0658,-8.43634 0.0658,1.52034 0.19741,-9.24648 0.13161,9.32543 0.39481,-72.1809 0.26321,-20.18602 0.1316,45.63594 0.19741,51.89323 0.13161,3.7382 0.1974,-14.99635 0.0658,-1.61262 0.0658,1.7183 0.1316,10.27616 0.52642,-79.59363 0.13161,-4.10985 0.1316,48.66043 0.19741,50.59639 0.13161,-9.77167 0.1974,-20.74645 0.0658,-1.74593 0.0658,4.45563 0.1316,18.11719 0.52642,-70.45658 0.13161,-7.38547 0.1316,41.9335 0.19741,49.3177 0.0658,0.91761 0.19741,-21.51658 0.1316,-13.35304 0.0658,0.46887 0.1316,19.59934 0.52642,-73.69727 0.13161,-11.72064 0.0658,2.20167 0.1316,10.89315 0.19741,28.45905 0.0658,-4.57721 0.0658,2.39658 0.1974,-5.44269 0.0658,2.17704 0.1316,18.12816 0.32901,-43.37732 0.32901,-31.28498 0.0658,-0.0515 0.0658,-0.46254 0.0658,2.835 0.32902,43.13636 0.1974,-13.21172 0.0658,4.98291 0.13161,27.17962 0.39481,-49.50615 0.19741,-10.02003 0.0658,0.12637 0.46062,118.48403 0.26321,-16.26688 0.0658,-3.56168 0.0658,2.08371 0.0658,1.40199 0.46061,-83.66278 0.19741,-11.91922 0.13161,45.7918 0.1974,50.57279 0.0658,3.20724 0.0658,-1.66253 0.19741,-18.16503 0.1316,-2.00125 0.13161,9.56354 0.46061,-81.35956 0.19741,-9.54233 0.13161,48.12101 0.1974,53.19633 0.0658,3.78147 0.0658,-0.90462 0.19741,-14.94972 0.0658,-3.87863 0.0658,0.51941 0.13161,6.70835 0.39481,-71.69184 0.26321,-18.11149 0.39481,104.22047 0.0658,-0.2795 0.26321,-18.56141 0.0658,-0.20803 0.1316,6.38646 0.52642,-82.50625 0.13161,-6.2444 0.1316,39.99837 0.19741,57.49975 0.13161,3.18507 0.32901,-24.44265 0.1316,7.63197 0.32901,-55.81829 0.13161,-12.76686 0.19741,-23.74456 0.0658,2.42132 0.19741,23.85793 0.1316,22.43962 0.0658,-0.83405 0.0658,2.16174 0.1974,-9.30543 0.0658,0.6268 0.1316,18.34568 0.26321,-33.41272 0.13161,-11.93042 0.26321,-25.79028 0.0658,0.98395 0.0658,0.41817 0.0658,3.05772 0.26321,32.92294 0.0658,4.24168 0.1974,-18.17119 0.0658,6.69572 0.1316,35.74786 0.0658,-6.26257 0.26321,-27.48254 0.26321,-17.40299 0.0658,-0.24005 0.26321,103.58378 0.13161,-6.50118 0.0658,-4.77907 0.19741,-21.66724 0.1316,3.75366 0.13161,13.83642 0.52642,-84.0939 0.0658,-3.47148 0.0658,0.1998 0.13161,47.12792 0.1316,46.07273 0.0658,-3.24439 0.1316,-9.9256 0.19741,-19.75165 0.1316,5.19243 0.13161,15.83394 0.52642,-82.37298 0.0658,-0.1253 0.0658,-0.84935 0.13161,42.9821 0.19741,46.28274 0.1316,-5.97659 0.19741,-24.56784 0.0658,-1.43947 0.19741,19.84665 0.46061,-79.06802 0.19741,-7.48225 0.13161,46.00806 0.1974,45.73694 0.0658,0.73951 0.0658,-3.61863 0.19741,-18.28629 0.0658,0.25467 0.1316,7.13115 0.0658,5.80507 0.52642,-81.31067 0.13161,-2.67847 0.1316,46.10567 0.13161,44.3863 0.19741,-17.96902 0.1974,-19.32383 0.0658,-0.83023 0.0658,2.3616 0.1316,21.42678 0.59223,-83.57447 0.0658,-6.93838 0.0658,3.87326 0.19741,28.28057 0.19741,17.6615 0.0658,-0.42175 0.19741,-15.02359 0.0658,4.73898 0.1316,24.99518 0.52642,-61.22913 0.13161,-4.71965 0.26321,15.25663 0.1974,14.23629 0.0658,5.77398 0.1316,-8.00352 0.0658,0.78375 0.19741,38.36346 0.0658,-8.18402 0.32902,-45.10464 0.1316,-9.21761 0.0658,0.65782 0.0658,1.65974 0.39481,109.52877 0.0658,-1.75374 0.19741,-22.69223 0.0658,-2.16728 0.13161,10.54348 0.0658,8.79324 0.39481,-66.33144 0.19741,-10.95035 0.0658,-1.1945 0.13161,47.56793 0.1316,41.5323 0.19741,-17.78764 0.19741,-25.11069 0.0658,-2.04886 0.13161,17.62401 0.0658,17.73972 0.0658,-10.14666 0.32901,-52.3295 0.19741,-10.03179 0.0658,-2.07438 0.13161,45.07227 0.1316,45.24418 0.0658,-4.05641 0.0658,3.87503 0.1316,-18.17591 0.19741,-16.71543 0.0658,2.5656 0.13161,23.94728 0.0658,-8.14247 0.26321,-42.84046 0.32901,-23.30275 0.13161,44.52318 0.1316,40.33182 0.13161,-10.327 0.32901,-41.53944 0.0658,4.48 0.13161,31.37779 0.0658,-9.346 0.32901,-49.63428 0.26321,-14.68858 0.13161,44.48139 0.1316,40.28388 0.32901,-46.52048 0.13161,-12.21526 0.0658,4.14797 0.1316,34.65284 0.0658,-8.25358 0.26321,-35.72655 0.32901,-32.88746 0.19741,12.273 0.1316,12.80208 0.39482,-32.5255 0.0658,6.36116 0.1316,41.75801 0.0658,-3.40194 0.39481,-45.91105 0.0658,-1.08389 0.13161,-6.95537 0.0658,2.07281 0.0658,0.81844 0.0658,-1.4666 0.1316,8.49792 0.19741,-6.39571 0.1974,-22.03541 0.13161,36.19459 0.0658,26.01545 0.0658,-4.10566 0.39482,-40.70591 0.0658,-3.54513 0.0658,1.2398 0.0658,3.11847 0.26321,93.24305 0.1316,-2.69672 0.0658,-5.16976 0.19741,-30.39732 0.0658,-4.71207 0.0658,4.45482 0.1316,32.47561 0.0658,-9.90045 0.32902,-54.74281 0.1974,-12.97051 0.0658,0.0574 0.26321,88.77136 0.1316,-7.29844 0.32901,-40.75724 0.0658,4.68919 0.1316,31.73179 0.0658,-9.34976 0.26321,-45.99981 0.26321,-20.58838 0.0658,0.24629 0.13161,45.94082 0.1316,41.49617 0.19741,-18.31952 0.19741,-34.10979 0.0658,-2.61032 0.13161,19.73162 0.0658,19.77923 0.0658,-9.76919 0.32901,-52.6641 0.19741,-12.32284 0.0658,0.9082 0.13161,44.89607 0.1316,39.93948 0.39482,-56.24019 0.0658,0.17938 0.1316,18.75123 0.0658,16.5286 0.0658,-9.9851 0.26321,-48.30699 0.32901,-24.91403 0.26321,84.05489 0.19741,-1.40505 0.19741,-26.1763 0.1316,-6.17309 0.13161,25.16478 0.0658,-9.22085 0.26321,-48.33024 0.32901,-26.33844 0.19741,15.95153 0.1316,14.70415 0.0658,-1.16315 0.1316,-8.01457 0.19741,-15.50958 0.0658,5.70695 0.1316,36.99081 0.0658,-5.67529 0.1974,-26.33433 0.39482,-28.888928 0.0658,0.286027 0.13161,3.049981 0.1974,20.66703 0.0658,0.45901 0.0658,-1.45065 0.19741,-14.15738 0.1316,28.55217 0.0658,21.65382 0.0658,-5.38421 0.32901,-40.97597 0.1316,-10.48663 0.0658,2.47108 0.0658,6.78266 0.26321,91.15377 0.0658,-4.74776 0.39481,-38.93253 0.0658,2.31931 0.1316,32.77404 0.0658,-7.27851 0.26321,-45.79855 0.19741,-17.21733 0.13161,0.87089 0.26321,80.83583 0.0658,-8.0068 0.39481,-41.74853 0.0658,2.94729 0.1316,34.16112 0.0658,-7.63587 0.26321,-49.28687 0.26321,-17.68411 0.0658,1.72988 0.26321,82.94785 0.0658,-4.86372 0.39481,-25.59575 0.13161,10.96423 0.0658,13.06119 0.52642,-84.61113 0.13161,-4.94958 0.2632,89.55356 0.13161,-5.62894 0.0658,-2.02135 0.19741,-24.60774 0.0658,-2.49516 0.0658,2.17039 0.13161,27.87485 0.0658,-7.52047 0.26321,-47.82188 0.32901,-21.1895 0.26321,80.38341 0.13161,-8.63497 0.0658,-0.96775 0.19741,-25.42114 0.0658,-3.17792 0.0658,3.06702 0.13161,24.3906 0.0658,-7.27842 0.26321,-45.53467 0.32901,-29.55503 0.19741,19.89618 0.19741,27.77577 0.0658,1.56262 0.0658,-0.38877 0.0658,-0.54659 0.13161,-3.09304 0.0658,0.93958 0.13161,23.74764 0.0658,-6.58183 0.26321,-32.42798 0.32901,-17.78406 0.26321,16.25114 0.19741,20.95311 0.0658,2.82111 0.19741,-14.0697 0.1316,24.42091 0.0658,18.27178 0.0658,-3.63069 0.26321,-35.39567 0.26321,-12.84685 0.0658,0.43401 0.46062,94.11764 0.1974,-12.89081 0.13161,-2.29898 0.1316,17.38069 0.59223,-81.89355 0.0658,-2.14145 0.1316,45.11725 0.13161,43.67968 0.0658,-2.18857 0.0658,-0.87169 0.0658,-3.80659 0.19741,-19.01065 0.0658,-0.52558 0.0658,1.77642 0.1316,18.65188 0.0658,-8.18176 0.26321,-54.13828 0.32902,-18.94189 0.1316,42.85143 0.19741,44.85352 0.0658,3.03283 0.0658,-2.48567 0.26321,-21.20369 0.13161,2.27441 0.0658,10.30113 0.26321,-52.08774 0.26321,-28.0158 0.13161,-5.01177 0.1316,44.48442 0.13161,41.32474 0.0658,-0.32229 0.0658,0.39622 0.0658,-4.49099 0.19741,-31.19397 0.0658,-2.33709 0.13161,10.12798 0.0658,16.29431 0.0658,-4.42943 0.32901,-53.7813 0.26321,-17.00991 0.13161,43.57188 0.1316,40.46258 0.0658,-0.006 0.0658,-0.53394 0.0658,-3.49594 0.26321,-41.51353 0.0658,0.42143 0.13161,27.365 0.0658,-5.33589 0.26321,-47.5303 0.32901,-27.2013 0.0658,1.16985 0.26321,25.09472 0.0658,-2.769 0.32901,-25.54403 0.0658,5.32567 0.19741,38.51971 0.26321,-30.86533 0.26321,-19.22997 0.0658,-2.92719 0.0658,0.75173 0.0658,0.39996 0.0658,-0.90131 0.19741,14.84338 0.0658,-0.19793 0.0658,-0.98314 0.19741,-19.68661 0.0658,6.4869 0.19741,51.75061 0.32901,-37.13943 0.13161,-3.46656 0.1316,1.71338 0.26321,89.85111 0.1316,-3.67985 0.0658,-4.31891 0.1974,-22.79865 0.0658,-2.71372 0.0658,1.37386 0.1316,21.2243 0.0658,-6.12784 0.26321,-48.62222 0.1974,-14.43595 0.13161,-5.61745 0.26321,79.30168 0.0658,-7.78226 0.13161,-7.84054 0.0658,-15.16201 0.0658,0.59248 0.0658,-2.88843 0.13161,9.09471 0.0658,5.22451 0.0658,14.77111 0.0658,-7.767 0.32901,-61.70925 0.19741,-9.28157 0.0658,-0.49649 0.1316,45.51986 0.19741,37.27228 0.1316,5.5414 0.19741,-23.37838 0.0658,-2.08238 0.13161,5.49514 0.0658,8.51355 0.59222,-92.90571 0.0658,1.26501 0.26321,90.01196 0.1316,-7.95121 0.0658,-2.15575 0.19741,-30.75362 0.0658,0.45598 0.0658,1.29424 0.1316,24.76703 0.0658,-0.37495 0.32902,-63.23929 0.1974,-15.07714 0.0658,0.58487 0.46061,100.61047 0.26321,-30.16339 0.0658,0.75268 0.13161,18.84048 0.0658,-7.93866 0.26321,-44.5528 0.32901,-28.57808 0.13161,8.68968 0.1316,21.70423 0.13161,19.57554 0.0658,0.01 0.26321,-16.56864 0.0658,2.83753 0.13161,20.22216 0.0658,-5.8499 0.26321,-35.53109 0.32901,-26.68092 0.0658,-2.05661 0.0658,1.56241 0.0658,-1.39612 0.26321,27.18823 0.0658,-0.59815 0.19741,-28.86074 0.0658,3.17253 0.19741,45.78558 0.46062,-52.805199 0.1316,2.077969 0.26321,88.32587 0.0658,-6.66004 0.0658,-2.26249 0.0658,1.49039 0.19741,-29.18549 0.1316,-0.55832 0.0658,6.15123 0.0658,19.74957 0.0658,-0.76228 0.32901,-60.43638 0.19741,-13.08316 0.0658,0.95558 0.46062,105.35648 0.26321,-29.37346 0.0658,3.41965 0.0658,2.03222 0.0658,13.79649 0.0658,-3.89055 0.32901,-59.76577 0.19741,-10.06788 0.0658,1.08469 0.26321,72.21524 0.0658,-9.21632 0.39482,-27.24245 0.0658,2.39739 0.19741,30.25346 0.32901,-53.37212 0.19741,-11.13406 0.0658,-0.58201 0.26321,65.36424 0.46061,-43.66717 0.13161,14.31402 0.1316,22.5391 0.46062,-66.43885 0.0658,-2.51233 0.0658,0.36178 0.26321,69.35226 0.0658,-8.53257 0.39481,-34.77603 0.0658,0.3631 0.1974,27.78167 0.32902,-52.76144 0.1974,-17.12859 0.0658,-2.73046 0.0658,3.36397 0.1974,14.06841 0.0658,1.759 0.39481,-19.20155 0.0658,4.50265 0.19741,33.93491 0.39482,-50.653467 0.1974,-10.674992 0.0658,3.10122 0.0658,-0.6174 0.0658,0.349071 0.26321,24.332388 0.0658,5.23303 0.13161,-6.92767 0.0658,2.40668 0.13161,21.82133 0.1316,16.68237 0.32901,-45.33072 0.13161,-5.637592 0.0658,0.513017 0.0658,1.693196 0.26321,83.270969 0.0658,-3.48071 0.0658,-0.6386 0.0658,4.83268 0.19741,-24.01321 0.0658,-5.3545 0.0658,0.65483 0.0658,4.06848 0.13161,21.78659 0.32901,-62.6633 0.19741,-6.10094 0.0658,0.57685 0.26321,69.5447 0.13161,-10.25122 0.0658,2.15532 0.1316,-18.3495 0.13161,-2.92294 0.0658,1.77755 0.0658,5.48991 0.13161,16.69017 0.32901,-64.29383 0.19741,-7.44831 0.0658,0.21995 0.26321,70.45245 0.1316,-11.92835 0.0658,1.59994 0.1974,-24.71144 0.0658,-1.58811 0.0658,1.8212 0.19741,29.95843 0.39481,-70.767938 0.19741,-8.732379 0.26321,85.980867 0.1316,-2.17357 0.0658,4.83694 0.1316,-16.65316 0.0658,-0.85432 0.0658,0.14862 0.0658,-0.30311 0.0658,2.23785 0.0658,12.30025 0.0658,-3.17873 0.32901,-66.79323 0.19741,-14.529776 0.0658,1.025013 0.46061,103.650303 0.19741,-11.84996 0.13161,-9.13371 0.1316,9.52809 0.13161,-23.95137 0.26321,-42.9507 0.0658,-2.17249 0.19741,-13.07141 0.26321,19.54808 0.1316,15.20729 0.0658,-0.34487 0.0658,-2.41234 0.1974,-17.85982 0.13161,18.6699 0.0658,13.17068 0.0658,-0.8154 0.26321,-32.06919 0.19741,-15.861042 0.0658,4.731992 0.13161,-14.221208 0.1316,-2.691386 0.32901,41.134004 0.19741,-20.44895 0.26321,40.96692 0.0658,-2.32336 0.26321,-33.64972 0.19741,-8.56749 0.0658,2.46417 0.13161,48.38389 0.19741,49.7189 0.1316,5.82451 0.32901,-36.48222 0.0658,-2.72894 0.1316,14.95895 0.13161,-19.411 0.39481,-39.3 0.0658,-0.75169 0.26321,81.0455 0.0658,-9.99124 0.26321,-33.79642 0.19741,-17.74835 0.0658,3.4937 0.13161,22.37448 0.0658,-4.09017 0.32901,-54.97454 0.19741,-6.46081 0.13161,47.78975 0.1316,41.70352 0.0658,-1.60266 0.0658,-0.20599 0.0658,0.77742 0.19741,-32.20906 0.1316,-10.89178 0.19741,14.21523 0.1316,-20.46302 0.46062,-50.020424 0.46062,103.044334 0.39481,-44.15254 0.13161,11.921 0.0658,-2.04532 0.32901,-55.35995 0.19741,-8.586646 0.46062,93.198106 0.1316,-13.49115 0.0658,-2.96574 0.13161,-15.56622 0.19741,8.84307 0.0658,-4.16349 0.26321,-41.87346 0.26321,-23.389121 0.0658,2.958001 0.39481,38.57512 0.0658,-2.39341 0.1974,-20.52862 0.0658,0.36507 0.1974,22.54149 0.0658,-1.12862 0.26321,-32.38737 0.32901,-16.790658 0.0658,-0.335642 0.0658,-0.966705 0.32902,22.982285 0.1974,-19.358028 0.0658,3.054079 0.1974,40.214439 0.0658,-1.38616 0.32901,-39.56833 0.0658,-0.703548 0.1316,4.908388 0.26321,96.29615 0.13161,-0.98268 0.0658,1.39528 0.26321,-28.01416 0.13161,-1.84354 0.1316,9.24238 0.0658,-4.39829 0.26321,-41.03487 0.26321,-5.07817 0.26321,76.51514 0.0658,-9.05858 0.1316,-7.62446 0.26321,-35.0132 0.13161,-2.40923 0.1974,24.97286 0.39482,-47.34098 0.1316,-3.87761 0.26321,74.31703 0.0658,-10.14168 0.13161,-5.12425 0.26321,-34.1669 0.0658,-3.49068 0.0658,0.92343 0.1974,25.12234 0.32901,-38.47168 0.0658,-4.39471 0.0658,0.31702 0.0658,-0.69421 0.26321,67.32545 0.0658,-12.33803 0.19741,-24.33826 0.26321,-22.25575 0.19741,17.56284 0.0658,-2.91197 0.32901,-43.27763 0.19741,-13.179077 0.32901,32.422837 0.19741,9.8387 0.19741,-25.5637 0.0658,1.44242 0.26321,24.44891 0.32901,-25.98224 0.13161,-6.00603 0.0658,-4.935418 0.32901,23.345938 0.0658,-2.05776 0.19741,-6.46385 0.13161,-6.26591 0.0658,2.60112 0.19741,20.91528 0.0658,-0.98334 0.32901,-32.526445 0.19741,-5.551342 0.0658,1.156403 0.0658,2.598002 0.0658,-2.696358 0.13161,6.825759 0.0658,-1.591901 0.13161,-9.52677 0.1974,-24.684251 0.0658,2.493562 0.26321,48.638271 0.0658,-3.50419 0.1316,-8.27049 0.13161,-11.979246 0.0658,1.146085 0.13161,-2.891395 0.1316,9.632351 0.0658,-2.878812 0.0658,0.858984 0.0658,1.167413 0.19741,-8.145082 0.1974,-16.56424 0.13161,20.703174 0.19741,22.958628 0.39481,-38.000131 0.0658,-5.006961 0.0658,0.01371 0.46061,113.216142 0.26321,-33.3722 0.13161,-7.31269 0.1316,11.07559 0.0658,-3.90066 0.32902,-48.19291 0.1974,-9.569104 0.26321,81.252484 0.13161,-5.3198 0.0658,1.52542 0.0658,-10.07435 0.0658,1.92654 0.1316,-8.02574 0.0658,1.15535 0.13161,10.23362 0.0658,-2.63085 0.52642,-61.63201 0.0658,0.42217 0.39482,73.08165 0.0658,3.29903 0.19741,-15.17279 0.1316,-5.14223 0.0658,1.73086 0.13161,8.05495 0.0658,-2.81511 0.32901,-44.2137 0.0658,-0.31787 0.1316,-5.49293 0.26321,65.40087 0.0658,-7.47672 0.13161,-3.77163 0.26321,-38.29948 0.0658,-5.12231 0.26321,25.23289 0.46062,-49.16169 0.0658,-5.68099 0.26321,21.60077 0.19741,13.74309 0.0658,1.11634 0.19741,-11.01864 0.1316,6.94829 0.13161,9.06918 0.0658,-1.42916 0.46062,-44.436147 0.0658,-2.877105 0.0658,1.808998 0.0658,1.247095 0.0658,-0.990216 0.32901,36.311145 0.19741,-18.1816 0.1316,14.38855 0.13161,13.63733 0.1974,-17.10003 0.32901,-25.98787 0.0658,2.171105 0.39481,81.951645 0.0658,-1.48616 0.26321,-37.13194 0.0658,-3.37904 0.0658,0.48835 0.19741,13.35329 0.52642,-54.520035 0.26321,77.295805 0.0658,-6.07115 0.0658,-2.90173 0.0658,3.01066 0.19741,-28.28872 0.13161,-9.86925 0.0658,1.47555 0.19741,15.94087 0.46061,-53.593533 0.0658,0.875043 0.39482,82.05965 0.0658,1.67587 0.19741,-30.26854 0.1316,-7.10203 0.0658,0.95853 0.1316,9.63289 0.0658,-1.28493 0.52642,-50.05353 0.19741,70.64303 0.19741,28.87765 0.0658,4.16467 0.19741,-14.9289 0.1316,-6.60112 0.46062,-42.99066 0.26321,-23.74274 0.0658,-2.08529 0.26321,73.561 0.13161,-5.55245 0.0658,-0.96135 0.32901,-38.5452 0.0658,2.79486 0.0658,7.69853 0.0658,-0.75607 0.1316,-12.0867 0.46062,-44.030183 0.32901,21.701313 0.39482,-15.06088 0.19741,18.47638 0.1316,-1.77925 0.52642,-46.36901 0.0658,1.078122 0.39482,20.312058 0.0658,-0.653618 0.1316,-14.637803 0.0658,1.360547 0.1316,26.001294 0.13161,15.32051 0.0658,-0.94899 0.32901,-36.308365 0.0658,0.02581 0.0658,-1.226266 0.0658,2.692386 0.39481,90.937875 0.0658,1.54925 0.1974,-27.2233 0.19741,-10.18572 0.13161,7.86353 0.0658,0.66659 0.1316,-16.43216 0.19741,-30.54239 0.0658,-1.12751 0.0658,-3.984872 0.0658,1.750752 0.46061,91.29831 0.19741,-33.55407 0.13161,-10.41452 0.0658,0.38213 0.0658,7.79333 0.0658,-1.85764 0.0658,-1.72074 0.46061,-45.09471 0.0658,1.91981 0.26321,67.31323 0.0658,-5.29471 0.46062,-38.18274 0.0658,4.19569 0.0658,11.12855 0.0658,-0.65706 0.0658,-1.21927 0.46061,-52.618348 0.0658,0.18858 0.26321,72.865598 0.0658,-5.83731 0.0658,-1.59466 0.0658,1.04989 0.19741,-25.03882 0.19741,-7.66851 0.1974,10.77536 0.19741,-26.87887 0.26321,-28.086327 0.0658,-1.888245 0.46062,103.984112 0.26321,-40.83728 0.0658,-5.71378 0.0658,3.19237 0.0658,5.07976 0.1974,-16.94817 0.46062,-56.533673 0.19741,14.987605 0.1316,17.372068 0.0658,-1.28521 0.0658,0.3723 0.1316,-7.522943 0.13161,-9.98585 0.1316,6.344049 0.13161,9.550584 0.0658,1.34336 0.13161,-4.2885 0.26321,-26.21295 0.1316,-10.813791 0.0658,0.567697 0.0658,-0.02123 0.0658,-1.350409 0.32901,26.002491 0.19741,-10.607506 0.26321,29.993728 0.0658,-1.10971 0.46062,-35.229922 0.0658,-0.920387 0.46062,82.125569 0.26321,-28.12308 0.0658,-1.11282 0.1316,13.9191 0.0658,-3.15225 0.1316,-8.68754 0.46062,-41.654893 0.26321,76.836193 0.1316,-2.18236 0.0658,4.49805 0.1974,-26.12803 0.19741,-7.87301 0.1316,7.39359 0.0658,-0.25978 0.1316,-13.94236 0.19741,-27.208592 0.19741,-7.044981 0.26321,69.601553 0.0658,-3.36876 0.0658,-2.08702 0.0658,0.8458 0.19741,-27.05758 0.13161,-7.98421 0.0658,2.417 0.19741,11.13489 0.0658,-2.44099 0.46062,-48.345586 0.26321,68.044726 0.0658,-3.98589 0.0658,-0.79682 0.0658,2.10815 0.19741,-23.31404 0.0658,-3.28225 0.0658,0.16143 0.0658,1.76447 0.0658,6.76931 0.0658,-0.16121 0.0658,-0.43446 0.13161,-9.58943 0.26321,-34.009201 0.1316,-9.640663 0.26322,72.059334 0.1316,-0.48126 0.0658,3.85956 0.19741,-20.88742 0.0658,-2.26529 0.19741,8.42331 0.26321,-21.11178 0.26321,-33.209715 0.1316,-15.031632 0.0658,2.166799 0.26321,28.732569 0.0658,-1.69074 0.0658,0.947369 0.13161,-6.799994 0.1316,-7.534357 0.0658,1.221434 0.26321,13.057612 0.0658,-0.718695 0.0658,-2.948933 0.39481,-38.522894 0.0658,-0.335012 0.13161,1.307816 0.32901,28.285476 0.13161,-10.927936 0.0658,1.154749 0.19741,39.117124 0.0658,-2.62109 0.19741,-15.718144 0.1974,-24.250913 0.0658,-0.770903 0.1316,-4.702313 0.13161,51.354023 0.1974,45.87626 0.0658,-0.0204 0.0658,4.80279 0.1316,-19.39526 0.26321,-10.83928 0.0658,5.13582 0.2632,-26.82097 0.19741,-29.306149 0.19741,-11.371176 0.26321,77.813315 0.1316,-2.78221 0.0658,5.71315 0.0658,-15.37824 0.0658,2.24002 0.0658,-0.0648 0.0658,0.55817 0.1316,5.71165 0.0658,5.96954 0.26321,-35.01121 0.19741,-29.289102 0.19741,-12.594774 0.46062,98.041836 0.1974,-28.23746 0.13161,-9.49139 0.0658,1.50828 0.0658,6.38748 0.0658,-2.49823 0.19741,-18.34096 0.19741,-30.238089 0.1316,-7.741886 0.0658,-2.509564 0.1316,42.264689 0.13161,36.50531 0.0658,-1.88013 0.1316,7.68268 0.19741,-20.38894 0.13161,-7.30808 0.0658,0.26373 0.0658,5.18174 0.0658,-0.24661 0.19741,-20.88156 0.26321,-33.731257 0.13161,-7.422795 0.1316,41.271742 0.13161,36.02192 0.0658,-0.50498 0.1316,4.39435 0.26321,-37.21439 0.0658,-2.91354 0.13161,8.30748 0.0658,-1.03315 0.19741,-12.12309 0.32901,-40.727405 0.0658,-7.321353 0.0658,2.661139 0.1316,14.584516 0.19741,25.074773 0.0658,1.63422 0.26321,-19.319809 0.0658,1.84788 0.13161,15.171369 0.0658,-1.74814 0.19741,-8.5463 0.32901,-34.780868 0.0658,-4.444879 0.0658,1.339176 0.0658,-0.949098 0.0658,0.551559 0.26321,27.577774 0.0658,1.229899 0.19741,-14.845768 0.0658,4.393719 0.19741,26.753456 0.0658,-0.47964 0.13161,-6.31806 0.19741,-24.026527 0.1974,-3.48345 0.46062,92.893207 0.19741,-26.67315 0.0658,-4.29847 0.0658,1.13948 0.0658,-0.12463 0.0658,5.87716 0.0658,-2.94474 0.26321,-35.00449 0.19741,-17.939367 0.1316,-7.687448 0.19741,68.721735 0.26321,37.68732 0.19741,-20.98392 0.1974,-8.33598 0.0658,2.69081 0.26321,-31.94644 0.26321,-32.348074 0.13161,-7.33064 0.46062,76.369714 0.26321,-29.70654 0.0658,-4.83468 0.0658,0.14464 0.0658,5.13093 0.0658,-1.97851 0.1974,-13.54497 0.26321,-29.229417 0.13161,-11.801874 0.0658,1.45711 0.0658,-0.571369 0.0658,-3.790694 0.32901,21.390394 0.1974,-16.72648 0.13161,16.100669 0.1316,11.893751 0.19741,-5.84331 0.26321,-23.559325 0.13161,-6.768841 0.46061,50.813206 0.26321,-18.04472 0.19741,21.50083 0.0658,-2.24203 0.59223,-56.594578 0.1974,8.377755 0.26321,26.960913 0.13161,-7.443569 0.1316,-6.689671 0.13161,8.498167 0.0658,5.933853 0.0658,-1.13261 0.19741,-5.782705 0.32901,-32.205288 0.19741,-7.672243 0.0658,-1.916585 0.26321,22.225368 0.0658,-0.808136 0.19741,-15.534674 0.0658,1.899298 0.26321,29.85625 0.0658,1.243546 0.0658,-2.741544 0.19741,-24.450147 0.0658,-1.299864 0.1316,-3.914219 0.46062,81.231993 0.1316,-15.04966 0.19741,-6.20733 0.0658,0.38316 0.0658,5.03041 0.0658,-0.89685 0.19741,-14.40714 0.26321,-35.215846 0.1316,-9.844284 0.13161,40.43309 0.1974,41.51509 0.13161,8.17109 0.1316,-20.03261 0.26321,-7.54317 0.0658,4.86493 0.26321,-21.09238 0.26321,-36.186708 0.1316,-8.700497 0.13161,43.413895 0.1974,51.13617 0.13161,15.90883 0.1974,-23.62879 0.19741,-12.61457 0.0658,4.52076 0.26321,-26.21116 0.19741,-30.482542 0.19741,-10.658036 0.46062,79.552398 0.1974,-29.58648 0.13161,-6.39325 0.0658,0.80975 0.13161,5.44394 0.1974,-11.53304 0.26321,-33.705283 0.13161,-9.953502 0.46062,69.448075 0.1974,-24.59668 0.13161,-6.67318 0.19741,9.2917 0.52641,-50.6475 0.0658,-8.196055 0.0658,0.5776 0.39481,27.887019 0.26321,-13.176701 0.13161,8.102335 0.1316,7.907136 0.0658,-2.21263 0.0658,1.459493 0.0658,0.732002 0.26321,-29.193711 0.19741,-13.450448 0.1316,-0.673925 0.26321,18.355892 0.0658,-1.008149 0.1974,-11.909827 0.13161,13.508358 0.1974,17.854484 0.13161,2.846587 0.26321,-26.658026 0.1316,-9.227191 0.0658,1.207225 0.1316,4.067398 0.26321,20.283244 0.0658,-0.457998 0.19741,-11.628933 0.0658,3.960122 0.19741,23.705392 0.0658,0.576402 0.13161,2.348122 0.26321,-27.563657 0.1316,-9.423956 0.46062,87.083316 0.19741,-20.18673 0.1974,-3.32958 0.0658,6.76186 0.0658,-2.04585 0.19741,-12.12801 0.1974,-33.106546 0.19741,-15.499467 0.13161,38.596963 0.1316,37.69223 0.0658,-1.44621 0.0658,1.58526 0.0658,5.36646 0.1316,-15.03796 0.26321,-5.49115 0.0658,3.19842 0.1974,-12.73867 0.0658,-4.58665 0.26321,-35.451117 0.1316,-11.677318 0.13161,41.606795 0.1316,31.77181 0.0658,-1.04044 0.13161,9.80857 0.1316,-13.59857 0.19741,-7.31069 0.0658,0.43361 0.0658,4.62183 0.0658,-2.06817 0.46061,-52.223785 0.13161,-13.684633 0.1316,38.165758 0.19741,38.38574 0.13161,7.09676 0.1974,-21.18519 0.13161,-6.34694 0.1316,7.80718 0.0658,-4.96917 0.52642,-54.113141 0.1316,-10.157282 0.39481,34.808041 0.19741,-9.827618 0.0658,0.411561 0.13161,7.762596 0.1316,5.677063 0.13161,-5.322651 0.0658,1.055466 0.39482,-44.612819 0.1316,-2.446633 0.0658,1.726147 0.26321,28.269317 0.0658,1.172754 0.1974,-10.614599 0.13161,13.754811 0.1316,12.338094 0.0658,-1.290146 0.0658,0.542502 0.0658,0.51239 0.26321,-28.868954 0.13161,-6.610054 0.46061,91.356125 0.0658,-15.27431 0.0658,0.51904 0.1974,-6.82431 0.0658,0.10276 0.0658,4.78189 0.26321,-18.81793 0.19741,-31.788821 0.1974,-15.111424 0.13161,38.022365 0.1316,34.87254 0.0658,-1.48581 0.1316,10.95989 0.0658,-15.68823 0.0658,0.28223 0.1974,-7.3517 0.0658,-0.93116 0.0658,4.80346 0.26321,-16.28041 0.19741,-32.855694 0.1316,-10.230357 0.0658,-5.212723 0.13161,38.307074 0.1316,36.47348 0.0658,-0.52974 0.0658,1.48892 0.0658,6.36353 0.1316,-12.51404 0.19741,-9.16736 0.0658,0.33352 0.0658,4.83043 0.65802,-67.266532 0.0658,7.54108 0.26321,51.733912 0.13161,10.57393 0.19741,-13.80505 0.0658,-2.55302 0.0658,1.03515 0.13161,7.92961 0.26321,-17.03001 0.26321,-34.817763 0.1316,-11.660584 0.13161,34.308097 0.1974,34.63073 0.13161,9.62254 0.1974,-18.35592 0.0658,-3.08778 0.0658,0.58502 0.1316,6.52453 0.26321,-18.01081 0.39482,-54.189908 0.0658,0.806857 0.39482,40.902853 0.26321,-13.29194 0.0658,0.403995 0.19741,12.024244 0.0658,-5.536941 0.0658,0.274021 0.0658,2.937459 0.39482,-47.630887 0.0658,-3.439344 0.0658,2.038175 0.13161,11.681313 0.19741,16.392569 0.0658,1.284084 0.19741,-10.100295 0.0658,3.401806 0.1974,25.257117 0.0658,-0.06885 0.1316,1.320532 0.19741,-28.151722 0.1316,-6.145506 0.0658,-2.900982 0.1316,42.68794 0.19741,38.14224 0.1316,10.53644 0.0658,-14.63663 0.0658,0.44162 0.26321,-7.28039 0.0658,5.31703 0.0658,-2.83821 0.19741,-14.61597 0.26321,-37.537025 0.13161,-11.546224 0.1316,37.916049 0.1316,35.20918 0.0658,-1.44744 0.1316,10.80377 0.0658,-15.61305 0.0658,0.23478 0.1316,-6.73647 0.0658,1.45372 0.0658,-2.14386 0.0658,4.27451 0.0658,-2.67245 0.32901,-40.080482 0.26321,-24.014633 0.13161,39.644415 0.1316,34.27432 0.0658,-0.41559 0.0658,1.65776 0.0658,6.53088 0.19741,-18.1542 0.1316,-4.57746 0.0658,0.10304 0.0658,3.84135 0.0658,-0.72173 0.26321,-26.81436 0.26321,-30.873133 0.0658,-5.1496 0.13161,39.487853 0.1316,35.50737 0.0658,-1.5916 0.13161,8.37362 0.0658,-12.96498 0.0658,2.00133 0.19741,-6.86462 0.0658,0.33099 0.0658,3.52481 0.1316,-10.33138 0.52642,-54.406595 0.0658,9.706623 0.26321,64.042572 0.13161,11.26217 0.19741,-19.5107 0.1316,-8.67008 0.0658,0.37744 0.0658,3.83912 0.1974,-15.98211 0.0658,0.12105 0.32901,-42.114352 0.0658,-10.100749 0.0658,0.763166 0.19741,21.910472 0.19741,13.809275 0.26321,-12.156754 0.0658,0.609386 0.19741,11.838236 0.1316,-5.234876 0.0658,1.396657 0.46061,-46.588213 0.0658,0.644729 0.0658,0.864875 0.26321,25.2948 0.0658,1.031583 0.1316,-6.380275 0.0658,0.357388 0.0658,3.491863 0.19741,27.504052 0.1316,-2.866285 0.0658,0.132799 0.19741,-28.40669 0.19741,-9.661989 0.1316,45.438532 0.13161,43.95553 0.0658,-0.73763 0.1316,10.87964 0.0658,-13.02787 0.0658,2.80475 0.26321,-12.66564 0.0658,4.00972 0.65803,-71.108482 0.1316,38.858422 0.19741,41.30575 0.1316,11.87556 0.0658,-15.10569 0.0658,0.89973 0.1316,-4.69132 0.0658,0.87532 0.1316,3.03853 0.32901,-43.03095 0.32902,-33.408679 0.1316,37.481869 0.19741,48.51009 0.1316,7.20579 0.0658,-13.36714 0.0658,0.8181 0.1316,2.20999 0.46062,-32.33406 0.26321,-38.681907 0.1316,-12.461254 0.13161,38.936081 0.19741,48.09568 0.1316,16.28105 0.0658,-11.91659 0.0658,2.87286 0.26321,-12.69605 0.0658,5.31436 0.52642,-75.919039 0.1316,-10.674816 0.13161,37.124065 0.1974,41.27559 0.13161,8.22597 0.19741,-25.12214 0.1316,-9.43386 0.13161,4.6141 0.72382,-65.8363 0.39482,33.98431 0.26321,-13.585619 0.0658,1.592975 0.13161,11.423391 0.0658,-0.06457 0.1316,-2.24687 0.0658,3.331149 0.39481,-43.940216 0.0658,-3.902128 0.0658,2.582684 0.0658,1.493019 0.26321,22.558011 0.0658,-1.233358 0.1316,-10.078483 0.0658,2.072339 0.1316,15.246055 0.19741,18.349195 0.0658,0.366054 0.0658,1.466492 0.26321,-30.473962 0.13161,-6.835235 0.1316,40.838457 0.19741,44.92054 0.13161,10.34423 0.0658,-11.44242 0.0658,3.25613 0.26321,-12.74328 0.0658,1.94941 0.0658,-2.77767 0.59222,-67.699493 0.1316,39.233283 0.19741,42.48644 0.0658,0.60338 0.0658,7.21508 0.1974,-20.63055 0.19741,-5.60385 0.0658,2.61705 0.65803,-66.314847 0.1316,38.427527 0.13161,44.49109 0.0658,-0.83604 0.1316,6.75157 0.13161,-18.45091 0.26321,-8.78731 0.0658,2.51539 0.26321,-15.28569 0.26321,-38.079787 0.1316,-11.764868 0.13161,35.997615 0.19741,37.80266 0.1316,9.15848 0.0658,-11.83038 0.0658,1.69619 0.0658,-1.20633 0.0658,1.08003 0.19741,6.78412 0.26321,-30.4553 0.26321,-37.148528 0.1316,-12.498611 0.13161,41.734599 0.19741,52.64863 0.1316,10.65414 0.19741,-19.4986 0.1316,-12.85422 0.0658,0.0815 0.0658,-0.1251 0.65802,-77.76524 0.0658,2.081773 0.39482,36.55033 0.0658,-1.389952 0.19741,-6.438527 0.19741,10.011996 0.0658,-2.05562 0.65802,-52.7057 0.0658,2.290721 0.32901,35.63954 0.0658,-1.424186 0.19741,-10.528029 0.0658,1.217682 0.19741,18.887831 0.1316,-1.780483 0.0658,1.450372 0.2632,-27.511222 0.13161,-7.854105 0.1316,42.569509 0.19741,42.21455 0.13161,12.28781 0.19741,-20.44792 0.1974,-8.3214 0.0658,2.83789 0.26321,-14.61282 0.26321,-36.817896 0.13161,-10.642561 0.1316,39.096867 0.19741,39.90721 0.0658,2.62281 0.0658,7.36433 0.0658,-15.01407 0.0658,0.29004 0.19741,-8.703 0.0658,-1.61347 0.0658,2.50757 0.26321,-16.58734 0.26321,-38.110347 0.13161,-9.773602 0.1316,40.116479 0.19741,47.01328 0.13161,12.06489 0.1974,-25.84145 0.19741,-11.69864 0.0658,3.0921 0.32901,-33.20572 0.26321,-26.966663 0.0658,-5.068788 0.1316,38.227021 0.13161,34.82288 0.0658,-2.74185 0.1316,10.74403 0.0658,-13.66361 0.0658,0.71801 0.26321,-10.20992 0.0658,2.58839 0.26321,-14.24613 0.26321,-37.639401 0.1316,-10.15888 0.13161,36.415571 0.19741,35.02556 0.1316,8.22078 0.13161,-14.23566 0.1974,-10.18041 0.0658,1.90374 0.0658,4.97557 0.26321,-17.08489 0.39481,-51.539163 0.0658,2.345308 0.39481,42.078175 0.32901,-19.564709 0.19741,13.011209 0.13161,-5.70465 0.0658,2.539064 0.39481,-43.233353 0.0658,-2.531443 0.0658,0.876939 0.1316,9.909253 0.26321,16.597026 0.13161,-7.627589 0.0658,1.453116 0.39481,28.331257 0.0658,2.52045 0.1974,-28.017309 0.19741,-10.334712 0.13161,40.949011 0.1974,49.01259 0.13161,6.38077 0.0658,-13.52342 0.0658,0.45707 0.26321,-10.45053 0.0658,2.53946 0.26321,-16.65662 0.2632,-38.055297 0.13161,-12.843346 0.1316,38.006443 0.19741,44.0285 0.13161,6.72597 0.0658,-11.05549 0.0658,1.8297 0.19741,-6.08333 0.0658,0.51551 0.0658,3.33421 0.13161,-10.50348 0.52642,-63.685107 0.1316,41.457457 0.19741,43.137 0.13161,14.45129 0.0658,-9.78725 0.0658,2.60884 0.26321,-14.65427 0.0658,0.46838 0.65803,-83.827907 0.1316,37.075517 0.19741,44.62691 0.1316,5.82702 0.19741,-21.22998 0.19741,-9.14598 0.0658,1.0567 0.26321,-15.56515 0.26321,-34.893374 0.13161,-10.929737 0.1316,34.022119 0.19741,35.995002 0.1316,5.48029 0.19741,-13.71491 0.13161,-9.34529 0.0658,2.84915 0.0658,4.01734 0.0658,-1.92379 0.59222,-63.833944 0.0658,0.788692 0.39481,37.137921 0.13161,-2.745425 0.0658,-0.181254 0.0658,1.070553 0.0658,-2.29292 0.19741,11.159757 0.39482,-31.132116 0.26321,-23.984782 0.1316,2.487503 0.32901,26.143544 0.19741,-11.625997 0.0658,2.469371 0.19741,23.918797 0.0658,-2.691551 0.0658,1.419938 0.0658,2.209117 0.26321,-29.095201 0.1316,-6.760962 0.46062,87.263859 0.0658,-11.88883 0.0658,1.06529 0.26322,-7.70268 0.0658,3.57611 0.26321,-20.57602 0.26321,-33.95412 0.1316,-11.491074 0.46062,79.464854 0.0658,-4.23285 0.0658,15.25594 0.0658,-2.2211 0.92123,-86.297378 0.19741,62.300538 0.19741,20.54283 0.0658,4.03285 0.1974,-17.30472 0.13161,-6.22044 0.0658,1.89977 0.0658,-1.3878 0.26321,-17.42682 0.26321,-37.749988 0.13161,-11.583721 0.1316,34.638261 0.13161,35.200168 0.0658,-0.3006 0.13161,3.11032 0.0658,-11.04021 0.0658,0.28165 0.13161,-5.96236 0.0658,0.16811 0.0658,0.5562 0.0658,3.36453 0.26321,-15.24258 0.26321,-34.922828 0.13161,-11.601154 0.1316,32.375314 0.19741,44.860638 0.1316,7.9559 0.19741,-24.33573 0.13161,-6.95175 0.0658,0.60042 0.0658,1.62614 0.52642,-48.884729 0.13161,-15.519004 0.0658,1.330197 0.39481,31.613658 0.26321,-11.487946 0.0658,0.274724 0.1316,10.103345 0.0658,-0.863039 0.0658,-1.6198 0.0658,0.616215 0.0658,0.704618 0.32901,-33.066964 0.13161,-8.108522 0.1316,3.428663 0.26321,18.557712 0.0658,-0.05959 0.13161,-4.975687 0.0658,0.256027 0.13161,13.179683 0.1316,11.825685 0.0658,-2.177216 0.13161,2.475652 0.26321,-25.633322 0.1316,-7.151818 0.13161,35.326725 0.19741,46.991983 0.0658,0.98753 0.0658,7.59381 0.19741,-17.18592 0.0658,0.74453 0.26321,-15.41642 0.46062,-46.126608 0.1316,-10.480407 0.13161,32.946542 0.1974,34.335463 0.13161,8.99916 0.19741,-15.85595 0.1974,-6.00945 0.0658,5.39621 0.65802,-60.199756 0.13161,31.867386 0.1974,36.58616 0.13161,7.24133 0.19741,-19.62071 0.1316,-6.74376 0.13161,1.9301 0.65802,-50.178647 0.19741,47.711587 0.1316,12.66057 0.13161,2.67014 0.1974,-15.90096 0.13161,-5.18584 0.0658,1.173797 0.0658,4.021973 0.0658,-0.94166 0.26321,-18.985888 0.32901,-28.877576 0.1316,28.268222 0.19741,33.251162 0.13161,7.55781 0.26321,-14.81525 0.0658,1.04368 0.0658,3.96398 0.0658,-1.53281 0.65803,-62.972612 0.0658,1.799315 0.46062,38.37957 0.1316,6.229181 0.0658,-1.139881 0.0658,-2.545984 0.1316,4.974499 0.72383,-56.260214 0.0658,1.036023 0.13161,10.609188 0.1974,15.28849 0.0658,-2.253131 0.1974,-17.083989 0.0658,3.230657 0.2632,24.250047 0.0658,2.170711 0.0658,-0.395593 0.19741,-23.014954 0.1316,-6.906232 0.0658,-3.31346 0.46062,52.98247 0.19741,-12.797885 0.0658,0.07042 0.0658,0.885065 0.13161,8.417846 0.19741,-7.875544 0.0658,-0.948736 0.39481,-40.012899 0.0658,0.348754 0.1974,16.565538 0.19741,21.140323 0.0658,-0.658723 0.19741,-11.345029 0.0658,2.718259 0.13161,7.41273 0.1316,-6.893918 0.0658,1.572071 0.0658,1.396883 0.39481,-31.264259 0.13161,30.579817 0.1974,40.545326 0.0658,-1.49642 0.0658,0.609 0.19741,-12.18123 0.0658,0.30964 0.0658,1.94752 0.13161,9.43273 0.65802,-65.800491 0.46062,68.056861 0.19741,-15.65084 0.0658,-3.180788 0.0658,0.382188 0.1316,7.38636 0.0658,-3.09222 0.59222,-53.035394 0.13161,28.041808 0.1974,37.086826 0.13161,6.91037 0.1316,-10.52577 0.0658,-0.45777 0.13161,-7.74541 0.1316,8.34621 0.65803,-63.783671 0.0658,1.91526 0.39482,36.487332 0.0658,-0.939218 0.26321,-12.104869 0.0658,1.375088 0.1316,8.548509 0.19741,-4.71944 0.32901,-31.198623 0.13161,-7.253561 0.1316,4.411652 0.32902,35.586065 0.1974,-14.153474 0.0658,1.520395 0.1316,18.100394 0.0658,-0.826827 0.19741,-3.579465 0.19741,-21.66078 0.19741,-8.179219 0.46061,84.335052 0.26321,-22.19966 0.13161,-3.40745 0.0658,5.95 0.0658,-3.78369 0.26321,-24.783262 0.32901,-26.441364 0.46062,67.074716 0.13161,-12.1822 0.1974,-11.25672 0.0658,0.35444 0.0658,6.35376 0.0658,-2.19001 0.13161,-3.65305 0.46061,-49.964829 0.13161,36.866338 0.19741,42.123011 0.1316,5.2702 0.19741,-21.55675 0.1316,-3.38566 0.13161,6.22296 0.65802,-64.120091 0.46062,71.253141 0.19741,-15.18943 0.0658,0.12152 0.0658,-0.117 0.13161,7.75775 0.0658,-1.65211 0.26321,-27.799042 0.32901,-32.906083 0.13161,35.127683 0.1974,37.944232 0.13161,6.09642 0.19741,-16.8469 0.1316,-6.00206 0.1316,8.80459 0.0658,-0.0691 0.32901,-32.23224 0.26321,-33.773463 0.0658,1.304334 0.19741,26.90096 0.19741,22.637369 0.1316,-7.233442 0.13161,-7.131564 0.1316,4.542991 0.0658,4.144595 0.0658,-1.995015 0.52642,-42.157711 0.1316,-9.462035 0.0658,0.285375 0.13161,12.30638 0.19741,16.98923 0.0658,-0.789321 0.1316,-7.377313 0.0658,2.904252 0.19741,29.711058 0.0658,-1.86405 0.13161,-2.395552 0.0658,-4.921874 0.19741,-27.388506 0.19741,-8.749542 0.1316,41.314519 0.19741,44.024725 0.1316,11.82029 0.13161,-12.35575 0.19741,-7.57897 0.0658,0.0808 0.0658,3.23436 0.26321,-22.83691 0.26321,-36.15522 0.13161,-14.32601 0.1316,35.039076 0.19741,38.145284 0.1316,6.17197 0.19741,-17.43277 0.0658,-4.45458 0.0658,0.66122 0.13161,11.08579 0.0658,-3.95951 0.19741,-15.66278 0.26321,-36.714609 0.1316,-10.992235 0.46062,90.443844 0.13161,-13.80576 0.1316,-5.42168 0.0658,0.55628 0.0658,0.70187 0.0658,3.44348 0.26321,-24.46479 0.26321,-38.064617 0.1316,-12.901079 0.46062,98.026316 0.0658,-14.11304 0.0658,1.28971 0.0658,0.43002 0.26321,-11.03218 0.65802,-74.965967 0.13161,40.026547 0.1974,36.75417 0.13161,9.03005 0.19741,-15.49915 0.1316,-5.84945 0.0658,0.18069 0.0658,4.45673 0.0658,-1.23044 0.19741,-18.70684 0.32901,-45.405901 0.0658,-9.417622 0.0658,1.789003 0.39482,40.41156 0.0658,-1.59882 0.1316,-4.905492 0.0658,0.28711 0.1316,3.847065 0.13161,8.870337 0.1974,-7.92222 0.32902,-39.363251 0.1316,-7.867563 0.13161,4.084846 0.32901,26.186953 0.1316,-8.927665 0.0658,1.152837 0.1316,14.875596 0.19741,19.529747 0.0658,-0.29981 0.13161,-19.950049 0.26321,-22.801137 0.0658,-2.76071 0.1316,46.882416 0.19741,44.437 0.13161,10.09834 0.0658,-14.28031 0.0658,0.42082 0.19741,-3.17102 0.0658,-1.53395 0.0658,4.39101 0.0658,-1.93595 0.19741,-21.00285 0.19741,-36.072245 0.19741,-15.466527 0.1316,44.090422 0.19741,42.41366 0.1316,7.09993 0.0658,-14.31893 0.0658,2.38254 0.26321,-7.18755 0.0658,3.82054 0.0658,-1.21172 0.13161,-10.63243 0.46062,-62.984387 0.1316,43.915977 0.19741,41.62845 0.1316,9.70032 0.0658,-13.72546 0.0658,1.06183 0.26321,-9.92896 0.0658,3.75769 0.1316,-7.48805 0.13161,-18.16166 0.19741,-35.139665 0.1974,-16.24579 0.13161,43.134135 0.19741,41.70297 0.1316,10.53432 0.0658,-14.04854 0.0658,1.05646 0.0658,-1.53512 0.0658,1.87911 0.0658,-2.4927 0.13161,9.07124 0.1316,-17.42801 0.39482,-61.398799 0.1316,-11.963765 0.13161,44.108394 0.19741,45.12958 0.1316,14.46882 0.19741,-21.32415 0.19741,-14.72392 0.0658,1.25038 0.1974,-22.67284 0.46062,-59.389941 0.0658,1.314981 0.46062,58.61963 0.13161,-5.64164 0.1316,-14.26217 0.0658,1.30123 0.0658,1.55599 0.1316,-5.27894 0.59222,-52.600235 0.13161,5.109729 0.32901,42.536659 0.19741,-13.15736 0.1316,10.356329 0.0658,11.319248 0.0658,-1.6158 0.1974,-16.444731 0.19741,-23.035323 0.19741,-6.840365 0.1316,48.201689 0.19741,55.54309 0.13161,14.99105 0.1974,-22.72562 0.19741,-6.75921 0.0658,3.00011 0.26321,-39.80218 0.19741,-26.448209 0.19741,-15.642749 0.1316,45.366428 0.19741,44.72393 0.1316,12.57264 0.0658,-16.84355 0.0658,0.20404 0.26321,-18.09545 0.0658,4.48825 0.0658,-1.88899 0.0658,-3.63224 0.39481,-56.094411 0.13161,-10.05348 0.1316,49.115631 0.13161,35.42377 0.0658,-1.47074 0.0658,0.23458 0.0658,2.72397 0.19741,-18.91924 0.13161,-5.54668 0.0658,0.46881 0.0658,6.9717 0.0658,-3.44727 0.0658,-1.6096 0.52642,-67.51072 0.1316,50.41945 0.19741,40.68102 0.0658,1.92242 0.0658,5.63797 0.19741,-23.6128 0.19741,-5.4467 0.0658,6.3868 0.0658,-3.05306 0.0658,-4.19467 0.46061,-63.398322 0.0658,-5.578798 0.13161,47.19913 0.1316,36.7857 0.0658,-4.68348 0.0658,2.01192 0.0658,2.3241 0.19741,-22.52005 0.1316,-6.54465 0.13161,8.81734 0.0658,-1.97213 0.0658,-1.18276 0.52642,-66.732602 0.0658,2.051896 0.26321,32.545634 0.1316,2.619596 0.26321,-13.120549 0.0658,1.279204 0.26321,15.689601 0.59222,-52.164348 0.39482,30.559597 0.0658,-1.305333 0.13161,-9.554664 0.0658,0.0041 0.0658,4.426772 0.26321,31.494186 0.52642,-47.127142 0.13161,50.153232 0.1974,39.06431 0.0658,0.31136 0.0658,4.39005 0.0658,-16.0635 0.0658,0.099 0.0658,-1.71297 0.0658,0.0424 0.1316,3.29429 0.0658,4.60855 0.0658,-2.14705 0.0658,-3.2281 0.52642,-67.359665 0.1316,46.381875 0.13161,36.40596 0.0658,-1.38383 0.13161,5.18872 0.1316,-15.95402 0.0658,-3.11733 0.0658,0.45029 0.0658,-0.19614 0.1316,7.57907 0.0658,-0.64673 0.0658,-3.30659 0.39481,-59.000731 0.13161,-11.36592 0.1316,47.671541 0.13161,36.47383 0.0658,-4.13237 0.0658,1.95214 0.0658,5.97398 0.19741,-19.84327 0.13161,-0.30176 0.1316,9.96992 0.0658,-2.39004 0.0658,-2.97644 0.39481,-61.420555 0.13161,-11.307098 0.46061,85.000763 0.0658,-13.74808 0.0658,0.57804 0.0658,-4.30768 0.0658,1.11951 0.0658,-0.0407 0.1316,7.26154 0.0658,-0.47967 0.0658,-2.95754 0.52642,-71.639605 0.1316,46.785365 0.19741,36.38269 0.1316,6.02309 0.19741,-21.61342 0.1316,-5.78993 0.13161,11.04958 0.0658,-1.35971 0.0658,-4.33918 0.46062,-65.491044 0.0658,-8.801867 0.0658,1.737036 0.32901,39.353045 0.0658,-0.30337 0.0658,-1.06875 0.19741,-8.752715 0.0658,0.840798 0.19741,17.520957 0.0658,-0.0309 0.39482,-45.220193 0.19741,-16.582004 0.39481,32.415924 0.0658,-0.95298 0.13161,-11.4215 0.0658,0.509552 0.0658,4.195896 0.26321,33.450125 0.46062,-46.821344 0.0658,-3.14851 0.46062,101.154324 0.0658,-15.65902 0.0658,0.50999 0.13161,-3.88326 0.1316,0.50835 0.0658,8.10856 0.0658,-4.64257 0.0658,-4.4889 0.32901,-56.907754 0.19741,-15.368039 0.13161,48.971953 0.1316,36.98193 0.0658,-1.52926 0.13161,9.99295 0.0658,-14.97458 0.0658,0.11515 0.0658,-1.29343 0.0658,5.22483 0.0658,-1.38336 0.0658,-4.37641 0.0658,4.00791 0.13161,-10.00919 0.32901,-57.086258 0.19741,-15.334421 0.1316,51.290759 0.19741,49.13475 0.13161,14.56549 0.1974,-24.19732 0.19741,-9.17078 0.0658,6.56747 0.19741,-31.86542 0.39482,-53.603321 0.0658,-4.110844 0.1316,49.725535 0.13161,39.48641 0.0658,-0.27164 0.1316,6.9766 0.13161,-19.7627 0.1316,-3.00185 0.13161,3.77439 0.0658,5.83121 0.13161,-13.88254 0.32901,-54.422559 0.19741,-15.061787 0.1316,48.570396 0.19741,42.3269 0.1316,5.69778 0.19741,-26.75874 0.13161,-10.26908 0.1974,11.56994 0.0658,-4.63668 0.32901,-48.788784 0.19741,-24.672081 0.0658,3.951968 0.32901,42.022057 0.0658,-0.64127 0.26321,-8.120194 0.0658,1.22066 0.19741,14.865424 0.0658,-3.03121 0.39481,-47.890176 0.1316,-14.194409 0.0658,1.436536 0.39481,34.939077 0.0658,-0.667846 0.19741,-12.328808 0.13161,18.358645 0.1316,19.581571 0.0658,-0.74162 0.32902,-39.890086 0.1974,-9.711612 0.13161,48.904718 0.19741,57.05701 0.1316,20.88453 0.19741,-27.63324 0.1974,-15.08701 0.0658,3.61348 0.1316,-12.08979 0.32901,-53.005296 0.19741,-15.785948 0.13161,52.267814 0.1974,42.56691 0.13161,5.803 0.19741,-31.74637 0.1316,-4.93467 0.19741,15.31485 0.1316,-20.79631 0.46062,-57.31697 0.13161,52.44888 0.1316,36.28374 0.0658,-3.67426 0.0658,0.59519 0.0658,3.62935 0.1974,-20.3022 0.13161,-3.26373 0.19741,15.8518 0.1316,-23.17555 0.46062,-59.079793 0.1316,50.244683 0.13161,43.0466 0.0658,-2.52841 0.0658,1.82035 0.0658,5.24422 0.1316,-15.19055 0.19741,-4.14708 0.1316,11.17281 0.0658,-1.47414 0.46061,-76.510219 0.13161,-10.131336 0.1316,47.638825 0.19741,47.22926 0.1316,10.40443 0.19741,-30.85904 0.13161,-13.804 0.0658,1.26636 0.13161,13.13567 0.59222,-80.076451 0.0658,0.743285 0.32901,41.266946 0.0658,2.70368 0.0658,-2.83595 0.1974,-15.132488 0.13161,11.837491 0.1316,14.324077 0.59223,-58.699614 0.0658,1.614231 0.32901,21.900486 0.0658,0.334276 0.0658,-2.396038 0.1974,-15.123226 0.13161,20.314722 0.1316,28.721023 0.0658,-2.64152 0.32902,-38.987436 0.1974,-4.142773 0.13161,50.863379 0.1316,42.15671 0.13161,-12.71383 0.0658,1.31405 0.19741,-25.08166 0.0658,-2.7095 0.0658,1.20094 0.0658,3.65986 0.1316,19.15155 0.19741,-32.52491 0.26321,-34.183524 0.1316,-5.971437 0.13161,52.536181 0.1316,36.36884 0.46062,-36.25381 0.0658,1.26047 0.19741,21.74054 0.0658,-7.52566 0.32901,-57.217511 0.19741,-10.751135 0.13161,52.261436 0.1316,36.65549 0.13161,-8.18784 0.0658,0.65572 0.19741,-25.02098 0.0658,-2.07509 0.1316,7.9172 0.13161,17.34093 0.59222,-84.133575 0.1316,52.123715 0.13161,39.75341 0.1316,-5.77921 0.0658,1.57544 0.19741,-24.27492 0.0658,-1.89118 0.0658,1.97269 0.19741,20.62063 0.59222,-80.237786 0.1316,48.790826 0.13161,38.81353 0.1316,-5.14345 0.0658,0.29377 0.1974,-23.16917 0.0658,-1.89305 0.0658,1.097 0.19741,17.02473 0.59222,-87.80888 0.0658,3.513758 0.26321,40.763002 0.0658,0.25619 0.0658,-0.72998 0.2632,-14.002768 0.13161,12.733808 0.13161,15.39645 0.52641,-61.644985 0.0658,-5.27563 0.0658,0.426475 0.26321,25.500541 0.1316,1.662525 0.0658,-2.032088 0.1974,-11.453761 0.13161,22.958744 0.1316,27.277149 0.52642,-55.20687 0.0658,-1.050522 0.13161,55.591812 0.1316,41.75995 0.39482,-25.71599 0.0658,0.23637 0.13161,7.26121 0.1316,13.26979 0.46062,-75.1499 0.1316,-9.707143 0.13161,52.222943 0.1316,41.31465 0.0658,-5.65087 0.0658,0.88018 0.0658,1.71935 0.0658,-16.99465 0.0658,0.0343 0.0658,-2.377 0.26321,18.07496 0.0658,-0.7676 0.32901,-65.889584 0.26321,-19.597291 0.13161,50.655725 0.1316,39.99401 0.13161,-6.61744 0.0658,0.007 0.1316,-17.66903 0.0658,-1.85452 0.0658,0.74697 0.1316,6.78944 0.13161,14.60707 0.39481,-70.990731 0.19741,-11.803357 0.13161,53.552858 0.1316,37.81485 0.13161,-7.68508 0.0658,-0.26913 0.19741,-21.60244 0.0658,-2.28066 0.26321,24.25324 0.39481,-68.266713 0.19741,-11.93494 0.1316,48.959943 0.13161,40.82217 0.46062,-39.69542 0.1316,8.52013 0.13161,14.94843 0.46061,-67.291601 0.13161,-13.136192 0.0658,4.310846 0.19741,31.186367 0.0658,-0.27124 0.39482,-17.583528 0.1316,16.013158 0.13161,18.03901 0.46061,-54.265425 0.13161,-11.629434 0.0658,2.22789 0.32901,22.608506 0.0658,1.296155 0.0658,-1.929006 0.1316,-12.126899 0.0658,0.527855 0.13161,23.041729 0.1316,25.559209 0.46062,-50.922262 0.0658,-4.718615 0.0658,0.878348 0.26321,96.077919 0.1316,-6.05572 0.0658,0.62841 0.0658,-13.67907 0.0658,0.90134 0.0658,-1.97724 0.0658,1.11475 0.0658,0.17419 0.0658,0.50929 0.1316,9.11156 0.39482,-68.493871 0.1974,-13.190574 0.26321,90.151215 0.13161,-2.54236 0.0658,1.48412 0.13161,-17.6907 0.1316,-2.59259 0.13161,5.42 0.1316,11.64748 0.39482,-69.961855 0.1974,-12.110631 0.13161,51.659866 0.1316,40.35007 0.13161,-7.71621 0.0658,0.37084 0.19741,-21.38141 0.0658,-0.83945 0.13161,9.00456 0.1316,13.17353 0.39482,-73.010894 0.1974,-12.879106 0.13161,49.55592 0.1316,45.21181 0.13161,-8.47917 0.0658,-0.75359 0.13161,-18.04612 0.0658,-2.86373 0.32901,19.38897 0.32901,-64.385202 0.26321,-20.659327 0.26321,91.027299 0.13161,-5.15898 0.0658,-1.62936 0.19741,-24.229 0.0658,-2.31249 0.0658,1.19098 0.19741,21.95072 0.32901,-57.062249 0.26321,-32.384989 0.1316,16.52004 0.26321,36.638158 0.0658,2.04789 0.0658,-0.69787 0.19741,-10.61455 0.1316,14.43801 0.0658,8.91148 0.0658,-2.53314 0.32901,-44.930984 0.26321,-20.993352 0.0658,1.575179 0.39482,39.723635 0.0658,-0.0017 0.19741,-15.537788 0.1316,21.30538 0.13161,24.4978 0.32901,-44.785284 0.1974,-7.479677 0.0658,0.989586 0.26321,100.386275 0.1316,-7.79539 0.0658,-3.71332 0.19741,-30.40543 0.0658,-1.51303 0.1316,11.58173 0.1316,20.67365 0.39482,-68.184483 0.19741,-7.978521 0.26321,92.623264 0.1316,-7.80317 0.0658,-1.17363 0.19741,-32.34756 0.0658,-3.11456 0.0658,2.17557 0.1974,27.8475 0.39482,-74.36243 0.1974,-11.774583 0.46062,99.230023 0.13161,-13.53154 0.1974,-8.25227 0.0658,1.7956 0.0658,13.64614 0.0658,-2.63735 0.32901,-69.38524 0.26321,-20.357041 0.13161,49.827921 0.19741,49.94314 0.0658,1.38178 0.0658,-0.20757 0.19741,-23.76497 0.0658,-6.67851 0.0658,1.24023 0.13161,17.12502 0.0658,-5.47589 0.46062,-81.193935 0.1316,-8.024313 0.13161,48.514848 0.1974,54.36358 0.13161,13.01182 0.26321,-28.53002 0.0658,-5.72799 0.0658,1.2114 0.0658,9.36999 0.0658,-2.9919 0.26321,-55.49876 0.32901,-36.838309 0.0658,2.997956 0.39482,45.726933 0.0658,-0.79545 0.19741,-11.01719 0.0658,3.39439 0.13161,23.95446 0.0658,-1.74929 0.26321,-39.64937 0.32901,-27.033144 0.0658,1.125538 0.19741,17.889144 0.0658,4.551544 0.0658,-0.470971 0.0658,0.687062 0.0658,-1.056544 0.19741,-15.831841 0.1316,31.517212 0.13161,23.45603 0.39481,-50.160006 0.13161,-6.190819 0.0658,1.989899 0.39481,108.417466 0.0658,5.46006 0.1974,-34.04482 0.0658,-4.90402 0.0658,0.75609 0.0658,4.94896 0.0658,15.70033 0.0658,-4.45941 0.32901,-67.72298 0.26321,-17.03593 0.1316,54.20639 0.19741,54.74812 0.1316,15.20305 0.19741,-22.9865 0.19741,-11.0671 0.0658,10.55431 0.0658,-6.04683 0.39482,-78.935071 0.19741,-10.068119 0.26321,100.10737 0.1316,-7.76946 0.0658,3.67857 0.13161,-17.51118 0.0658,-0.40688 0.13161,-2.55601 0.0658,2.57791 0.0658,11.44847 0.0658,-5.80738 0.39482,-74.044466 0.1974,-13.828795 0.13161,51.314811 0.13161,49.3988 0.0658,-2.51084 0.1316,4.83757 0.19741,-22.91014 0.0658,-0.28236 0.0658,2.01527 0.13161,13.9351 0.1316,-24.33345 0.32902,-55.10503 0.1974,-13.11552 0.26321,99.68286 0.13161,-4.93305 0.0658,0.50366 0.26321,-40.77061 0.0658,1.4399 0.13161,28.27969 0.0658,-2.00824 0.39481,-67.47449 0.19741,-17.327398 0.19741,23.612748 0.13161,14.02237 0.2632,-14.09306 0.13161,-7.04205 0.1316,20.69926 0.0658,17.80911 0.0658,-3.50562 0.32901,-43.439149 0.19741,-23.608921 0.0658,1.31673 0.0658,2.563792 0.26321,23.677799 0.13161,7.439519 0.0658,-3.09124 0.13161,-11.583133 0.0658,3.069879 0.19741,47.867194 0.0658,-10.35569 0.32901,-46.403536 0.19741,-6.434838 0.0658,3.300916 0.39481,102.579838 0.0658,7.89856 0.0658,-11.89229 0.0658,2.14278 0.0658,-2.73437 0.0658,0.43169 0.1974,12.89416 0.46062,-92.18963 0.19741,-10.224893 0.26321,97.682823 0.1316,-6.71899 0.0658,6.25327 0.0658,-10.68921 0.0658,3.66326 0.0658,-4.6468 0.0658,0.0887 0.0658,0.65697 0.1316,10.68113 0.46062,-81.04361 0.19741,-7.044845 0.26321,59.987605 0.0658,-4.49787 0.1316,6.00884 0.19741,-13.97925 0.13161,15.11688 0.1316,19.73569 0.52642,-82.00622 0.13161,-6.206518 0.1316,52.139908 0.19741,51.93683 0.1316,13.61159 0.19741,-13.41642 0.13161,-6.99367 0.1316,7.29505 0.46062,-86.35354 0.1974,-9.64374 0.26322,93.82515 0.1316,-2.99193 0.0658,0.42762 0.19741,-19.70035 0.0658,0.69936 0.0658,4.84304 0.13161,19.23793 0.59222,-91.2271 0.0658,-4.59629 0.59223,46.80746 0.1974,8.32449 0.0658,13.1294 0.0658,-0.96007 0.32901,-57.50116 0.32901,-26.567434 0.0658,-0.06808 0.1316,6.535017 0.32901,31.136517 0.13161,-10.0382 0.0658,2.42131 0.19741,43.02916 0.0658,-10.48843 0.32901,-48.14705 0.19741,-8.467886 0.0658,2.294006 0.26321,95.72558 0.0658,-8.00922 0.0658,-2.14805 0.0658,4.01514 0.19741,-15.62271 0.1316,12.20271 0.13161,17.5363 0.52642,-91.24022 0.0658,-2.59188 0.0658,1.45658 0.26321,89.58706 0.1316,-8.90992 0.0658,4.32854 0.0658,-10.37095 0.0658,1.07625 0.13161,2.5474 0.1974,21.42489 0.52642,-85.41642 0.0658,-4.00637 0.0658,1.14847 0.26321,89.78317 0.0658,-12.3734 0.32901,-28.90928 0.13161,20.73349 0.1316,24.74869 0.52642,-87.5518 0.0658,-3.91522 0.0658,0.40712 0.26321,91.37861 0.1316,-1.39345 0.0658,3.74703 0.0658,-11.47778 0.0658,1.65984 0.1316,-2.45902 0.19741,9.64236 0.59222,-99.21967 0.0658,0.4016 0.26321,98.22266 0.1316,-2.74084 0.0658,-0.50069 0.19741,-23.09009 0.0658,0.91072 0.19741,22.9127 0.59222,-94.78023 0.0658,-5.4245 0.19741,24.63425 0.19741,17.87598 0.1316,1.61414 0.13161,-5.13604 0.0658,2.95138 0.19741,28.92272 0.32901,-45.36427 0.13161,-9.63811 0.26321,-17.90913 0.1316,6.09318 0.32901,47.37465 0.19741,-19.18342 0.19741,26.40017 0.46062,-68.491144 0.1316,-4.6485 0.0658,1.141776 0.13161,55.942618 0.1974,51.24364 0.0658,1.31641 0.0658,4.4153 0.0658,-13.51351 0.0658,2.79461 0.0658,-6.05985 0.0658,0.26461 0.1316,8.61148 0.0658,-0.47234 0.46061,-95.56436 0.13161,-10.045489 0.0658,0.296883 0.46062,115.897726 0.0658,-12.73511 0.0658,1.32126 0.0658,-1.94984 0.0658,0.92753 0.1316,5.10805 0.0658,-1.49215 0.46062,-90.27027 0.19741,-6.83372 0.1316,51.42464 0.13161,41.36483 0.1316,-7.67037 0.0658,2.78132 0.1974,-17.16437 0.0658,2.62369 0.1974,27.13037 0.46062,-82.35755 0.19741,-6.89261 0.26321,92.21334 0.1316,-1.46688 0.0658,0.37465 0.1974,-16.62418 0.0658,-1.36017 0.1316,15.83046 0.0658,-1.81546 0.59223,-94.82152 0.0658,-0.47376 0.1316,51.07157 0.19741,48.11623 0.1316,4.66679 0.19741,-19.89336 0.0658,-2.74269 0.13161,18.01778 0.0658,-1.05762 0.46062,-71.32488 0.19741,-14.52849 0.0658,2.96668 0.26321,28.64472 0.0658,0.80635 0.13161,8.14263 0.0658,-2.16677 0.0658,-2.91908 0.0658,0.42406 0.13161,23.35484 0.0658,-1.77518 0.32901,-52.83393 0.32902,-32.147332 0.0658,0.12158 0.0658,1.245398 0.1316,13.826834 0.26321,27.6579 0.13161,-13.74785 0.0658,1.23516 0.19741,38.02046 0.0658,-9.98109 0.32901,-45.32998 0.19741,-9.72728 0.0658,2.85738 0.13161,54.27409 0.1316,46.50719 0.13161,-6.63235 0.0658,2.01956 0.13161,-13.63525 0.0658,1.12599 0.26321,23.49554 0.46061,-88.53707 0.13161,-5.782 0.0658,0.75742 0.13161,55.79332 0.1316,41.86788 0.0658,-3.09401 0.0658,0.12099 0.0658,2.18074 0.0658,-14.71386 0.0658,1.28327 0.0658,-1.16346 0.0658,0.13656 0.19741,15.43129 0.52642,-92.73786 0.1316,-4.31241 0.13161,53.08326 0.1316,48.44982 0.0658,-1.22651 0.0658,0.40192 0.0658,2.61515 0.1316,-9.88022 0.0658,0.44716 0.0658,1.29065 0.1974,16.74488 0.46062,-86.15224 0.19741,-9.36057 0.26321,94.7797 0.1316,-13.97908 0.0658,-6.12775 0.1974,-23.26161 0.0658,5.20049 0.1974,31.08416 0.59223,-92.94353 0.0658,-2.71758 0.1316,49.67956 0.13161,45.00551 0.32901,-21.46488 0.0658,-1.2565 0.13161,6.2625 0.1316,10.77254 0.52642,-76.30397 0.13161,-12.06439 0.0658,3.6762 0.39481,46.44381 0.0658,0.10539 0.1316,-3.53979 0.13161,14.01711 0.0658,14.88678 0.0658,-0.0921 0.39482,-57.34939 0.26321,-23.6767 0.0658,1.03931 0.19741,17.74142 0.1974,11.83793 0.0658,2.08219 0.1316,-11.39107 0.0658,5.02423 0.19741,48.19786 0.59222,-62.07267 0.0658,0.62505 0.26321,103.08273 0.13161,-6.22115 0.0658,-1.89277 0.0658,-10.84358 0.0658,3.26319 0.1316,3.27318 0.19741,8.95255 0.52642,-96.10806 0.1316,-6.84568 0.46062,112.98791 0.0658,-8.23031 0.0658,1.61818 0.0658,-1.22473 0.0658,0.77876 0.13161,6.18215 0.0658,-0.79865 0.46062,-81.52288 0.1974,-10.74414 0.26321,99.14569 0.13161,-14.62257 0.26321,-22.25231 0.26321,33.09096 0.52642,-95.32933 0.1316,-6.6096 0.46062,118.09092 0.26321,-17.10478 0.0658,0.47427 0.0658,1.48718 0.0658,-3.6527 0.52641,-98.74071 0.13161,-7.45084 0.46062,114.58643 0.1974,-11.87144 0.0658,-4.27269 0.0658,2.46606 0.0658,3.71447 0.0658,-3.74581 0.52642,-83.44934 0.13161,-12.40172 0.19741,20.98309 0.26321,40.04955 0.1316,3.29894 0.1316,-8.14899 0.13161,18.98744 0.0658,-1.3688 0.39482,-45.54067 0.26321,-21.60674 0.1316,7.54429 0.13161,16.40982 0.1974,15.67585 0.0658,2.12168 0.1316,-12.97166 0.0658,1.64131 0.19741,46.67965 0.0658,-7.09315 0.32902,-43.86145 0.26321,-16.34942 0.1316,51.63983 0.19741,54.76592 0.0658,2.00949 0.0658,-0.38943 0.19741,-12.65666 0.1316,-1.62206 0.0658,5.18763 0.0658,-0.78675 0.46062,-92.70665 0.19741,-10.26216 0.1316,50.6942 0.1316,47.9459 0.0658,-0.41921 0.1316,-1.43672 0.19741,-15.68618 0.0658,1.04952 0.13161,13.03144 0.0658,-0.39248 0.59222,-100.47928 0.0658,-0.23133 0.26321,102.96927 0.13161,-3.49274 0.0658,-1.58286 0.19741,-12.9754 0.0658,2.00106 0.1316,13.56847 0.0658,-1.61196 0.52642,-87.0575 0.0658,-2.85439 0.0658,0.26366 0.26321,103.45564 0.13161,-5.93855 0.0658,-3.83457 0.19741,-17.1042 0.0658,2.3463 0.1316,16.39179 0.0658,-2.67192 0.65802,-103.24857 0.13161,40.31723 0.1974,47.99242 0.0658,4.71228 0.0658,-0.29278 0.26321,-16.64263 0.0658,2.18167 0.0658,4.619 0.0658,-3.80013 0.46061,-77.62124 0.19741,-19.59084 0.19741,24.46272 0.26321,32.85134 0.1974,-3.0393 0.0658,2.70303 0.1316,17.82696 0.0658,-3.21197 0.39482,-61.88388 0.26321,-23.52513 0.1316,3.63117 0.0658,4.06539 0.2632,33.04708 0.0658,0.73413 0.1316,-13.74641 0.0658,5.13266 0.19741,37.18173 0.52642,-67.7962 0.0658,-1.97203 0.0658,0.40645 0.1316,52.30159 0.19741,57.9066 0.1316,7.86454 0.19741,-17.81717 0.0658,-2.53973 0.13161,7.1065 0.0658,-2.41072 0.46062,-90.07519 0.19741,-9.81421 0.1316,52.42955 0.13161,51.11257 0.0658,-0.0349 0.1316,3.49803 0.0658,-14.2316 0.0658,0.16015 0.0658,-0.68961 0.0658,0.6889 0.13161,8.13202 0.0658,-2.28216 0.46062,-88.92988 0.1974,-8.21824 0.13161,52.13708 0.19741,52.42495 0.1316,4.83476 0.13161,-11.54108 0.0658,-0.55005 0.0658,0.15805 0.13161,11.18217 0.0658,-1.46917 0.46062,-88.40878 0.1974,-10.42843 0.13161,51.66801 0.1316,50.36473 0.0658,-1.34705 0.0658,0.005 0.0658,1.16332 0.19741,-13.11881 0.0658,-0.4063 0.1316,10.56214 0.0658,-3.19428 0.52642,-85.70865 0.1316,-5.08607 0.26321,99.10413 0.13161,-11.99033 0.26321,-23.39855 0.0658,2.62894 0.1316,23.04983 0.0658,-0.73679 0.52642,-71.26792 0.1316,-13.18899 0.13161,13.87406 0.1974,31.16029 0.0658,-0.97346 0.19741,-9.31057 0.0658,-1.75692 0.1316,16.6544 0.1316,16.26491 0.52642,-66.33677 0.13161,-11.3418 0.0658,0.94464 0.13161,9.46269 0.26321,30.86941 0.0658,3.28325 0.1316,-11.30975 0.0658,3.92074 0.1974,32.53089 0.52642,-60.76488 0.0658,-2.18045 0.0658,0.32756 0.26321,108.9889 0.1316,-6.25526 0.26321,-21.08302 0.0658,3.16692 0.1316,17.60624 0.0658,-0.6634 0.46062,-84.51475 0.19741,-11.45513 0.26321,101.90946 0.1316,-11.89805 0.26321,-30.79034 0.19741,27.25604 0.0658,-0.65534 0.59222,-96.29254 0.0658,-2.32448 0.1316,48.03414 0.1316,50.69735 0.0658,-1.20796 0.1316,-3.56275 0.19741,-16.60481 0.0658,1.24346 0.19741,20.50088 0.59222,-97.17738 0.0658,-2.97254 0.13161,47.14696 0.1316,44.9437 0.0658,-0.25146 0.1316,6.8462 0.26321,-21.3144 0.13161,9.03737 0.0658,-3.69855 0.52642,-87.46509 0.1316,-6.24438 0.13161,41.2372 0.1974,46.73152 0.0658,1.50036 0.0658,-1.80783 0.26321,-21.80869 0.13161,14.67697 0.0658,-1.50917 0.52642,-77.21503 0.1316,-11.949743 0.13161,10.330883 0.1974,31.82156 0.13161,-2.58105 0.0658,0.67001 0.13161,-5.87693 0.0658,2.43237 0.19741,30.47917 0.59222,-66.567635 0.0658,-3.895297 0.0658,0.7995 0.13161,8.689822 0.1316,14.69171 0.0658,-0.86633 0.0658,-0.3419 0.1316,8.59224 0.0658,1.3118 0.1974,19.83344 0.0658,-3.31047 0.19741,-33.27003 0.0658,3.5417 0.39482,-29.310184 0.32901,24.227444 0.0658,-2.08549 0.0658,-4.5607 0.0658,3.59942 0.1316,-11.745195 0.13161,23.121525 0.1316,21.63839 0.19741,-20.43267 0.0658,3.97242 0.39482,-26.661673 0.32901,30.584023 0.0658,-0.84092 0.0658,-0.31364 0.0658,0.78133 0.1316,-16.10253 0.0658,4.40793 0.19741,45.27965 0.59222,-50.14664 0.0658,-2.48779 0.32901,54.0507 0.0658,-5.75319 0.26321,-23.63558 0.0658,5.5464 0.19741,39.86721 0.39482,-54.02858 0.26321,-18.98505 0.39481,59.75744 0.0658,-4.65802 0.0658,-1.08733 0.13161,-6.93859 0.0658,2.32257 0.19741,22.04186 0.46062,-68.76142 0.1974,-14.547984 0.39482,63.931344 0.26321,-18.40547 0.0658,3.1092 0.19741,29.05208 0.52642,-69.81138 0.1316,-8.614293 0.32902,41.268463 0.0658,-4.75798 0.1974,-11.77359 0.0658,-0.32167 0.0658,5.42693 0.19741,42.06653 0.59222,-63.045996 0.0658,-4.92203 0.0658,2.120715 0.13161,5.655721 0.32901,31.65393 0.19741,11.93536 0.1316,18.3082 0.0658,-1.89201 0.32901,-40.36676 v 0"
           style="fill:none;stroke:#000000;stroke-width:0.886227;stroke-linecap:butt;stroke-linejoin:round;stroke-miterlimit:10;stroke-dasharray:none;stroke-opacity:1"
           id="path580" />
      </g>
    </g>
    <g
       id="g582">
      <path
         d="m 71.6,27.446875 h 634 V 273.6 h -634 z"
         style="fill:none;stroke:#808080;stroke-width:0.5;stroke-linecap:butt;stroke-linejoin:miter;stroke-miterlimit:10;stroke-dasharray:none;stroke-opacity:1"
         id="path584" />
      <g
         id="g586"
         transform="rotate(90,-58.440625,80.465625)">
        <text
           xml:space="preserve"
           transform="scale(1,-1)"
           style="font-variant:normal;font-weight:normal;font-size:11px;font-family:LMRoman10;-inkscape-font-specification:LMRoman10-Regular;writing-mode:lr-tb;fill:#000000;fill-opacity:1;fill-rule:nonzero;stroke:none"
           id="text590"><tspan
             x="0 5.8080001 17.115999"
             y="0"
             id="tspan588">kWh</tspan></text>
      </g>
    </g>
  </g>
</svg>
